<svg width="92" height="92" viewBox="0 0 92 92" fill="none" xmlns="http://www.w3.org/2000/svg">
<g clip-path="url(#clip0_207_1985)">
<path d="M2.875 2.875H28.75V28.75H2.875V2.875Z" fill="#E05B69"/>
<path d="M84.5537 28.75L87.8455 11.5L73.3124 2.875L58.7793 11.5L62.0712 28.75H84.5537Z" fill="#F7D04F"/>
<path d="M2.875 89.1249H31.625L17.25 61.7549L2.875 89.1249Z" fill="#EF9F35"/>
<path d="M74.75 89.125C82.6891 89.125 89.125 82.6891 89.125 74.75C89.125 66.8109 82.6891 60.375 74.75 60.375C66.8109 60.375 60.375 66.8109 60.375 74.75C60.375 82.6891 66.8109 89.125 74.75 89.125Z" fill="#63C8CD"/>
<path d="M39.8332 11.0831L37.792 9.04187L31.0357 15.8125L37.792 22.5831L39.8332 20.5419L36.527 17.25H56.0626V14.375H36.527L39.8332 11.0831ZM39.8332 71.4581L37.792 69.4169L31.0357 76.1875L37.792 82.9581L39.8332 80.9169L36.527 77.625H56.0626V74.75H36.527L39.8332 71.4581ZM76.1876 57.5V37.9644L79.4795 41.2706L81.5207 39.2294L74.7501 32.4731L67.9795 39.2294L70.0207 41.2706L73.3126 37.9644V57.5H76.1876ZM15.8126 57.5V37.9644L19.1045 41.2706L21.1457 39.2294L14.3751 32.4731L7.60449 39.2294L9.64574 41.2706L12.9376 37.9644V57.5H15.8126Z" fill="#5A5A60"/>
</g>
<defs>
<clipPath id="clip0_207_1985">
<rect width="92" height="92" fill="white"/>
</clipPath>
</defs>
</svg>
