<svg width="92" height="92" viewBox="0 0 92 92" fill="none" xmlns="http://www.w3.org/2000/svg">
<g clip-path="url(#clip0_207_1954)">
<g clip-path="url(#clip1_207_1954)">
<path fill-rule="evenodd" clip-rule="evenodd" d="M37.6193 21.1271C37.0265 21.1271 36.5414 20.7498 36.3797 20.2109H32.7687C32.607 20.7498 32.1219 21.1271 31.5291 21.1271C30.7746 21.1271 30.2356 20.5342 30.2356 19.8336V11.9109C30.2356 11.2103 30.7746 10.6174 31.5291 10.6174C32.1758 10.6174 32.7148 11.1025 32.7687 11.6953H36.3258C36.4336 11.1025 36.9726 10.6174 37.6193 10.6174C38.32 10.6174 38.9128 11.2103 38.9128 11.9109V19.8336C38.9128 20.5342 38.32 21.1271 37.6193 21.1271Z" fill="#353D45"/>
<path fill-rule="evenodd" clip-rule="evenodd" d="M34.5472 87.5266C15.522 87.5266 0 72.0047 0 52.9795C0 33.9004 15.522 18.3784 34.5472 18.3784C53.6262 18.3784 69.1482 33.9004 69.1482 52.9795C69.1482 72.0047 53.6262 87.5266 34.5472 87.5266Z" fill="#FE9900"/>
<path fill-rule="evenodd" clip-rule="evenodd" d="M34.5471 84.2928C17.3004 84.2928 3.23364 70.2261 3.23364 52.9794C3.23364 35.6789 17.3004 21.666 34.5471 21.666C51.8476 21.666 65.8605 35.6789 65.8605 52.9794C65.8605 70.2261 51.8476 84.2928 34.5471 84.2928Z" fill="#FE7C00"/>
<path fill-rule="evenodd" clip-rule="evenodd" d="M31.7984 81.4363C31.7445 81.4363 31.6906 81.4363 31.6367 81.4363C18.2167 80.0889 7.43753 69.3098 6.09013 55.8898C6.03624 55.5125 6.14403 55.1891 6.41351 54.9196C6.62909 54.6502 6.95247 54.4885 7.32974 54.4885H11.8031C13.2583 54.4885 13.3122 53.195 13.3122 52.9794C13.3122 52.7099 13.2583 51.4164 11.8031 51.4164H7.32974C6.95247 51.4164 6.62909 51.2547 6.41351 50.9852C6.14403 50.7158 6.03624 50.3924 6.09013 50.0151C7.43753 36.5951 18.2167 25.8159 31.6367 24.4686C32.014 24.4147 32.3374 24.5224 32.6068 24.7919C32.8763 25.0075 33.038 25.3309 33.038 25.7082V30.1815C33.038 31.6367 34.3315 31.6906 34.5471 31.6906C34.8166 31.6906 36.1101 31.6367 36.1101 30.1815V25.7082C36.1101 25.3848 36.2717 25.0075 36.5412 24.7919C36.8107 24.5224 37.1341 24.4147 37.5113 24.4686C50.9314 25.8159 61.7105 36.5951 63.0579 50.0151C63.1118 50.3924 63.004 50.7158 62.7345 50.9852C62.519 51.2547 62.1956 51.4164 61.8183 51.4164H57.345C55.8898 51.4164 55.8359 52.7099 55.8359 52.9794C55.8359 53.195 55.8898 54.4885 57.345 54.4885H61.8183C62.1956 54.4885 62.519 54.6502 62.7345 54.9196C63.004 55.1891 63.1118 55.5125 63.0579 55.8898C61.7105 69.3098 50.9314 80.0889 37.5113 81.4363C37.1341 81.4902 36.8107 81.3824 36.5412 81.113C36.2717 80.8974 36.1101 80.574 36.1101 80.1967V75.7234C36.1101 74.2682 34.8166 74.2143 34.5471 74.2143C34.1698 74.2143 33.7386 74.376 33.4692 74.5916C33.1997 74.8611 33.038 75.2383 33.038 75.7234V80.1967C33.038 80.574 32.8763 80.8974 32.6068 81.113C32.3912 81.3285 32.0679 81.4363 31.7984 81.4363Z" fill="#E4E9F4"/>
<path fill-rule="evenodd" clip-rule="evenodd" d="M36.7569 51.9016C36.4874 51.9016 36.164 51.7399 35.8946 51.5243C35.4095 51.0393 35.4095 50.2847 35.8946 49.7458L44.5718 40.5835C45.0568 40.0985 45.8114 40.0446 46.3503 40.5296C46.8354 41.0147 46.8354 41.8231 46.4042 42.3082L37.6731 51.4705C37.4575 51.7399 37.1342 51.9016 36.7569 51.9016Z" fill="#353D45"/>
<path fill-rule="evenodd" clip-rule="evenodd" d="M42.955 13.2045H26.1934C25.4928 13.2045 24.8999 12.6116 24.8999 11.911V8.83894C24.8999 6.41363 26.894 4.47339 29.2655 4.47339H39.8829C42.2543 4.47339 44.2485 6.41363 44.2485 8.83894V11.911C44.2485 12.6116 43.6556 13.2045 42.955 13.2045Z" fill="#485360"/>
<path fill-rule="evenodd" clip-rule="evenodd" d="M34.5471 57.3989C32.1218 57.3989 30.1277 55.4048 30.1277 52.9794C30.1277 50.5002 32.1218 48.5061 34.5471 48.5061C37.0263 48.5061 39.0205 50.5002 39.0205 52.9794C39.0205 55.4048 37.0263 57.3989 34.5471 57.3989Z" fill="#555E6B"/>
<path fill-rule="evenodd" clip-rule="evenodd" d="M74.2143 81.0593H66.2377C65.5371 81.0593 64.9442 80.5742 64.8364 79.8736L64.2436 75.4002C63.8663 75.2385 63.4891 75.0769 63.1118 74.9152L59.5008 77.6638C58.9079 78.095 58.1534 77.9872 57.6144 77.5022L52.0093 71.897C51.5242 71.4119 51.4703 70.6035 51.9015 70.0645L54.5963 66.4535C54.4346 66.0763 54.2729 65.699 54.1651 65.3217L49.6918 64.675C48.9911 64.5672 48.4521 63.9743 48.4521 63.2737V55.351C48.4521 54.6504 48.9911 54.0575 49.6918 53.9497L54.1651 53.303C54.2729 52.9257 54.4346 52.5484 54.5963 52.2251L51.9015 48.6141C51.4703 48.0212 51.5242 47.2128 52.0093 46.7277L57.6144 41.1225C58.1534 40.6375 58.9079 40.5836 59.5008 41.0148L63.1118 43.7095C63.4891 43.5479 63.8663 43.3862 64.2436 43.2784L64.8364 38.7511C64.9442 38.0505 65.5371 37.5654 66.2377 37.5654H74.2143C74.9149 37.5654 75.5078 38.0505 75.6156 38.7511L76.2084 43.2784C76.5857 43.3862 76.963 43.5479 77.3403 43.7095L80.9513 41.0148C81.4902 40.5836 82.2987 40.6375 82.7837 41.1225L88.4428 46.7277C88.9278 47.2128 88.9817 48.0212 88.5506 48.6141L85.8019 52.2251C85.9636 52.5484 86.1253 52.9257 86.2869 53.303L90.7603 53.9497C91.4609 54.0575 91.9999 54.6504 91.9999 55.351V63.2737C91.9999 63.9743 91.4609 64.5672 90.7603 64.675L86.2869 65.3217C86.1253 65.699 85.9636 66.0763 85.8019 66.4535L88.5506 70.0645C88.9817 70.6035 88.9278 71.4119 88.4428 71.897L82.7837 77.5022C82.2987 77.9872 81.4902 78.095 80.9513 77.6638L77.3403 74.9152C76.963 75.0769 76.5857 75.2385 76.2084 75.4002L75.6156 79.8736C75.5078 80.5742 74.9149 81.0593 74.2143 81.0593Z" fill="#485360"/>
<path fill-rule="evenodd" clip-rule="evenodd" d="M70.226 71.1425C63.7046 71.1425 58.4229 65.8068 58.4229 59.3393C58.4229 52.8179 63.7046 47.5361 70.226 47.5361C76.7474 47.5361 82.0292 52.8179 82.0292 59.3393C82.0292 65.8068 76.7474 71.1425 70.226 71.1425Z" fill="#353D45"/>
<path fill-rule="evenodd" clip-rule="evenodd" d="M70.2262 50.9854C65.6451 50.9854 61.9263 54.7581 61.9263 59.3392C61.9263 63.9203 65.6451 67.6391 70.2262 67.6391C74.8073 67.6391 78.5262 63.9203 78.5262 59.3392C78.5262 54.7581 74.8073 50.9854 70.2262 50.9854Z" fill="#E4E9F4"/>
</g>
</g>
<defs>
<clipPath id="clip0_207_1954">
<rect width="92" height="92" fill="white"/>
</clipPath>
<clipPath id="clip1_207_1954">
<rect width="92" height="92" fill="white"/>
</clipPath>
</defs>
</svg>
