<svg width="92" height="92" viewBox="0 0 92 92" fill="none" xmlns="http://www.w3.org/2000/svg">
<path d="M81.7151 71.8942L88.1666 15.2797L45.9999 0L3.83325 15.2797L10.2886 71.8942L45.9999 92L81.7151 71.8942ZM29.4859 70.1922H19.6036L45.9999 10.1622L72.4193 70.1922H62.5561L57.2393 56.7602H34.8028L29.4859 70.1922Z" fill="#F44336"/>
<path d="M38.2681 48.484H53.7317L45.9999 29.6738L38.2681 48.484Z" fill="#F44336"/>
<path d="M46.0001 10.1621L19.6038 70.1921H29.4861L34.8029 56.7601H46.0001V48.4839H38.2683L46.0001 29.6738V10.1621Z" fill="#DEDEDE"/>
<path d="M45.9999 0L3.83325 15.2797L10.2886 71.8942L45.9999 92V56.7602H34.8028L29.4859 70.1922H19.6036L45.9999 10.1622V0Z" fill="#D43A2F"/>
<path d="M45.9999 29.6738L38.2681 48.484H45.9999V29.6738Z" fill="#D43A2F"/>
</svg>
