<svg width="92" height="92" viewBox="0 0 92 92" fill="none" xmlns="http://www.w3.org/2000/svg">
<g clip-path="url(#clip0_207_2012)">
<path d="M84.1243 52.4121V64.8182C84.1243 73.6 77.0153 80.7091 68.2334 80.7091C63.8425 80.7091 59.8698 78.9667 57.0122 76.0394C54.1547 73.1818 52.3425 69.2091 52.3425 64.8182V52.4121C52.3425 43.6303 59.4516 36.5212 68.2334 36.5212C72.6244 36.5212 76.5971 38.2637 79.4547 41.1909C82.3122 44.0485 84.1243 48.0212 84.1243 52.4121Z" fill="#76819F"/>
<path d="M84.1243 52.4121V55.0606C84.1243 50.6697 82.3819 46.697 79.4547 43.8394C76.5971 40.9818 72.6244 39.1697 68.2334 39.1697C59.4516 39.1697 52.3425 46.2788 52.3425 55.0606V52.4121C52.3425 43.6303 59.4516 36.5212 68.2334 36.5212C72.6244 36.5212 76.5971 38.2637 79.4547 41.1909C82.3122 44.0485 84.1243 48.0212 84.1243 52.4121Z" fill="#A3ACBF"/>
<path d="M44.3969 84.8908V90.606H3.97266V84.8908C3.97266 79.1757 7.73629 74.1575 13.2424 72.5544L24.1848 69.3484L35.1272 72.5544C40.6333 74.1575 44.3969 79.1757 44.3969 84.8908Z" fill="#00C5EA"/>
<path opacity="0.05" d="M44.3969 84.8908V90.606H3.97266V88.9333H35.6151C39.1696 88.9333 42.0272 86.0757 42.0272 82.5211C42.0272 81.0575 41.7484 79.5939 41.3302 78.2696C40.8424 76.9454 40.2151 75.6908 39.309 74.5757C42.4454 77.0151 44.3969 80.7787 44.3969 84.8908Z" fill="black"/>
<path opacity="0.5" d="M44.3969 84.8908V87.3302C44.3969 81.6151 40.6333 76.5969 35.1272 74.9938L24.1848 71.7878L13.2424 74.9938C7.73629 76.5969 3.97266 81.6151 3.97266 87.3302V84.8908C3.97266 79.1757 7.73629 74.1575 13.2424 72.5544L24.1848 69.3484L35.1272 72.5544C40.6333 74.1575 44.3969 79.1757 44.3969 84.8908Z" fill="white"/>
<path d="M29.6908 63.6333V72.206C29.6908 75.2727 27.2514 77.7121 24.1848 77.7121C21.1181 77.7121 18.6787 75.2727 18.6787 72.206V63.6333H29.6908Z" fill="#FFB266"/>
<path d="M29.4122 73.9484C28.7152 76.1787 26.6243 77.7817 24.1849 77.7817C22.6516 77.7817 21.2577 77.1545 20.2819 76.1787C19.6546 75.5514 19.2364 74.8545 18.9577 74.0181C20.5607 74.7151 22.3728 75.0635 24.1849 75.0635C25.9971 74.9938 27.8092 74.5757 29.4122 73.9484ZM35.5455 53.4575V61.4029C35.5455 67.6757 30.4577 72.7635 24.1849 72.7635C21.0486 72.7635 18.191 71.509 16.1001 69.4181C14.0092 67.3272 12.7546 64.5393 12.7546 61.3332V53.1787C13.1031 53.1787 14.8455 53.1787 15.4728 51.2272C15.4728 51.2272 26.3455 57.9181 32.4092 49.6938C32.4092 49.6938 32.8971 52.0635 35.5455 53.4575ZM9.26978 58.9635C9.26978 60.9151 10.8031 62.4484 12.7546 62.4484V55.4787C10.8031 55.4787 9.26978 57.012 9.26978 58.9635ZM39.0304 58.9635C39.0304 60.9151 37.4971 62.4484 35.5455 62.4484V55.4787C37.4971 55.4787 39.0304 57.012 39.0304 58.9635Z" fill="#FFCB8F"/>
<path d="M39.3091 49.694C39.2395 56.4546 35.5455 57.9182 35.5455 57.9182V53.4576C32.897 52.0637 32.4091 49.694 32.4091 49.694C26.3455 57.9879 15.4728 51.2273 15.4728 51.2273C14.8455 53.2485 13.1031 53.1788 12.7546 53.1788H12.6849V58.3364C12.6849 58.3364 8.92127 56.1758 9.06066 50.8788C9.13036 45.5122 12.894 43.9788 12.894 43.9788C25.0213 31.5728 34.0819 42.9334 34.0819 42.9334C34.0819 42.9334 39.3788 42.9334 39.3091 49.694Z" fill="#E98A42"/>
<path d="M39.309 49.6939V50.5302C38.8909 44.7454 34.0818 44.7454 34.0818 44.7454C34.0818 44.7454 25.0212 33.3151 12.8939 45.7909C12.8939 45.7909 9.47873 47.2545 9.13024 51.9939C9.13024 51.6454 9.06055 51.2969 9.06055 50.9484C9.13024 45.5818 12.8939 44.0484 12.8939 44.0484C25.0212 31.5727 34.0818 43.003 34.0818 43.003C34.0818 43.003 39.3787 42.9333 39.309 49.6939Z" fill="#E5A173"/>
<path d="M32.897 62.4484C32.897 62.7969 32.7576 63.1454 32.4788 63.4241C32.2 63.7029 31.9212 63.8423 31.5031 63.8423H30.7364C29.9697 63.8423 29.3425 63.215 29.3425 62.4484C29.3425 62.0999 29.4819 61.7514 29.7606 61.4726C30.0394 61.1938 30.3182 61.0544 30.7364 61.0544H31.5031C32.3394 61.1241 32.897 61.7514 32.897 62.4484ZM15.2637 62.4484C15.2637 62.7969 15.4031 63.1454 15.6819 63.4241C15.9606 63.7029 16.2394 63.8423 16.6576 63.8423H17.4243C18.1909 63.8423 18.8182 63.215 18.8182 62.4484C18.8182 62.0999 18.6788 61.7514 18.4 61.4726C18.1212 61.1938 17.8425 61.0544 17.4243 61.0544H16.6576C15.8909 61.1241 15.2637 61.7514 15.2637 62.4484ZM22.5819 63.9817C22.5819 64.3999 23.2788 64.7484 24.1152 64.7484C24.9516 64.7484 25.6485 64.3999 25.6485 63.9817H22.5819Z" fill="#FFB266"/>
<path d="M88.0273 84.8908V90.606H47.603V84.8908C47.603 79.1757 51.3667 74.1575 56.8727 72.5544L67.8151 69.3484L78.7576 72.5544C84.2636 74.1575 88.0273 79.1757 88.0273 84.8908Z" fill="#00FFC1"/>
<path opacity="0.05" d="M88.0273 84.8908V90.606H47.603V88.9333H79.2454C82.8 88.9333 85.6576 86.0757 85.6576 82.5211C85.6576 81.0575 85.3788 79.5939 84.9606 78.2696C84.4727 76.9454 83.8455 75.6908 82.9394 74.5757C86.0758 77.0151 88.0273 80.7787 88.0273 84.8908Z" fill="black"/>
<path opacity="0.5" d="M88.0273 84.8908V87.3302C88.0273 81.6151 84.2636 76.5969 78.7576 74.9938L67.8151 71.7878L56.8727 74.9938C51.3667 76.5969 47.603 81.6151 47.603 87.3302V84.8908C47.603 79.1757 51.3667 74.1575 56.8727 72.5544L67.8151 69.3484L78.7576 72.5544C84.2636 74.1575 88.0273 79.1757 88.0273 84.8908Z" fill="white"/>
<path d="M74.1575 65.097V71.8576C73.8787 75.1334 71.1605 77.7122 67.8151 77.7122C66.0727 77.7122 64.4696 77.0152 63.3545 75.8304C62.2393 74.7152 61.5424 73.1122 61.4727 71.4395V65.0273H74.1575V65.097Z" fill="#FFCB8F"/>
<path d="M74.1575 65.0969V71.8575C72.3454 72.6939 70.3939 73.1818 68.2333 73.1818C65.8636 73.1818 63.5636 72.5545 61.4727 71.3696V64.9575H74.1575V65.0969Z" fill="#FFB266"/>
<path d="M74.4364 71.3696C75.4122 73.2514 75.2031 75.6211 73.6 77.1545C72.0667 78.6878 69.697 78.9666 67.8152 77.9908L74.4364 71.3696Z" fill="white"/>
<path d="M73.6 77.1546C72.0667 78.6879 69.697 78.9667 67.8152 77.991L68.1637 77.6425C69.7667 77.991 71.5091 77.5728 72.694 76.3879C73.9485 75.1334 74.3667 73.391 74.0182 71.7879L74.3667 71.4395C75.4122 73.1819 75.2031 75.5516 73.6 77.1546Z" fill="#D4F4FF"/>
<path d="M61.194 71.3696C60.2183 73.2514 60.4274 75.6211 62.0304 77.1545C63.5637 78.6878 65.9334 78.9666 67.8153 77.9908L61.194 71.3696Z" fill="white"/>
<path d="M67.8153 77.9908C65.9334 78.9666 63.5637 78.7575 62.0304 77.1545C60.4274 75.5514 60.2183 73.2514 61.194 71.3696L61.6819 71.8575C61.4031 73.3908 61.8213 74.9939 63.0062 76.1787C64.191 77.3636 65.794 77.7817 67.3971 77.503L67.8153 77.9908Z" fill="#D4F4FF"/>
<path d="M79.5939 51.3668V59.7304C79.5939 66.0031 74.506 71.091 68.2333 71.091C65.0969 71.091 62.2393 69.8365 60.1484 67.7455C58.0575 65.6546 56.803 62.8668 56.803 59.6607V52.8304C58.1272 53.5971 59.7303 54.0849 61.403 54.0849C65.0272 54.0849 68.3727 51.9243 69.8363 48.8577C71.0212 50.9486 73.4606 52.2728 76.0393 52.2728C77.3636 52.3425 78.5484 51.994 79.5939 51.3668Z" fill="#FFCB8F"/>
<path d="M77.015 60.7758C77.015 61.1243 76.8757 61.4727 76.5969 61.7515C76.3181 62.0303 76.0393 62.1697 75.6211 62.1697H74.8544C74.0878 62.1697 73.4605 61.5424 73.4605 60.7758C73.4605 60.4273 73.5999 60.0788 73.8787 59.8C74.1575 59.5212 74.4363 59.3818 74.8544 59.3818H75.6211C76.3878 59.3818 77.015 60.0091 77.015 60.7758ZM59.312 60.7758C59.312 61.1243 59.4514 61.4727 59.7302 61.7515C60.009 62.0303 60.2878 62.1697 60.706 62.1697H61.4726C62.2393 62.1697 62.8666 61.5424 62.8666 60.7758C62.8666 60.4273 62.7272 60.0788 62.4484 59.8C62.1696 59.5212 61.8908 59.3818 61.4726 59.3818H60.706C59.9393 59.3818 59.312 60.0091 59.312 60.7758ZM66.6999 62.3091C66.6999 62.7273 67.3969 63.0758 68.2332 63.0758C69.0696 63.0758 69.7666 62.7273 69.7666 62.3091H66.6999ZM71.1605 66.003C70.7423 67.2576 69.6272 68.1637 68.2332 68.1637C66.8393 68.1637 65.6544 67.2576 65.306 66.003C65.1666 65.5152 65.515 65.097 66.0029 65.097H70.5332C70.9514 65.0273 71.2999 65.5152 71.1605 66.003Z" fill="#FFB266"/>
<path d="M65.0969 11.9879V29.203C65.0969 30.5969 63.9817 31.7121 62.5878 31.7121H60.4272V36.5909L58.8939 35.6151L52.6211 31.7121H40.8423L33.0363 36.5909V31.7121H30.9454C29.5514 31.7121 28.4363 30.5969 28.4363 29.203V11.9879C28.4363 10.5939 29.5514 9.47876 30.9454 9.47876H62.6575C63.9817 9.47876 65.0969 10.5939 65.0969 11.9879Z" fill="#D4F4FF"/>
<path d="M65.0969 11.9879V14.3575C65.0969 12.9636 63.9817 11.8485 62.5878 11.8485H30.9454C29.5514 11.8485 28.4363 12.9636 28.4363 14.3575V11.9879C28.4363 10.5939 29.5514 9.47876 30.9454 9.47876H62.6575C63.9817 9.47876 65.0969 10.5939 65.0969 11.9879Z" fill="#F3FCFF"/>
<path d="M58.9637 35.6151L52.6213 31.6424H46.8365L39.588 9.47876H50.391L58.9637 35.6151ZM44.7456 31.6424H41.5395L34.291 9.47876H37.4971L44.7456 31.6424Z" fill="white"/>
<path opacity="0.05" d="M57.6395 10.1757C57.6395 12.5454 56.8728 14.8454 55.4092 16.7272L55.2001 16.9363C55.2001 17.006 55.1304 17.006 55.0607 17.0757C54.5031 17.8424 53.1092 19.9333 53.1092 21.8151V25.0909C53.1092 26.206 52.5516 27.1818 51.7153 27.7394C51.088 29.2727 49.6243 30.3182 47.8819 30.3182H45.5122C43.7698 30.3182 42.3062 29.2727 41.6789 27.7394C40.8425 27.1818 40.285 26.206 40.285 25.0909V21.606C40.2153 20.4212 39.588 18.8879 38.6122 17.4242C38.5425 17.2848 38.4728 17.2151 38.4031 17.1454C36.8001 15.1939 35.894 12.7545 35.894 10.1757V9.47876H57.5698C57.6395 9.68785 57.6395 9.89694 57.6395 10.1757Z" fill="black"/>
<path d="M50.0425 26.2061C50.0425 27.3212 49.1364 28.2273 48.0213 28.2273H45.6516C44.5364 28.2273 43.6304 27.3212 43.6304 26.2061H50.0425Z" fill="#76819F"/>
<path d="M51.1577 21.8849H42.4456V25.0909C42.4456 25.7182 42.9334 26.2061 43.5607 26.2061H50.0425C50.6698 26.2061 51.1577 25.7182 51.1577 25.0909V21.8849Z" fill="#FEFEFF"/>
<path d="M55.5485 10.1757C55.5485 12.2666 54.8515 14.1485 53.6667 15.6121L53.597 15.6818L53.5273 15.7515C52.9697 16.4485 51.1576 19.1666 51.1576 21.8151H42.4455C42.4455 19.5848 41.1212 17.3545 40.4243 16.2394C40.2849 16.0303 40.2152 15.8909 40.0758 15.7515C38.8212 14.2182 37.9849 12.2666 37.9849 10.106C37.9849 6.13332 40.6333 2.78786 44.2576 1.67271C45.0243 1.53331 45.9303 1.39392 46.7667 1.39392C47.394 1.39392 47.9515 1.46362 48.5091 1.60301C48.8576 1.67271 49.2061 1.74241 49.5546 1.8818C50.0424 2.02119 50.5303 2.29998 51.0182 2.50907C51.4364 2.71816 51.7849 2.92725 52.1334 3.20604C52.7606 3.69392 53.3182 4.1818 53.7364 4.80907C54.9212 6.27271 55.5485 8.15453 55.5485 10.1757Z" fill="#FFE93E"/>
<path d="M51.0183 2.50907L45.8607 21.8848H42.4455C42.4455 19.6545 41.1213 17.4242 40.4243 16.3091L44.2576 1.74241C45.0243 1.53331 45.9304 1.39392 46.7667 1.39392C47.394 1.39392 47.9516 1.46362 48.5092 1.60301C48.8576 1.67271 49.2061 1.74241 49.5546 1.8818C50.1122 2.02119 50.6001 2.23028 51.0183 2.50907ZM53.7364 4.80907L49.2061 21.8848H47.1849L52.1334 3.20604C52.7607 3.69392 53.2486 4.1818 53.7364 4.80907Z" fill="#FFFF9A"/>
<path opacity="0.05" d="M42.2363 20.3516C42.3757 20.8394 42.4454 21.397 42.4454 21.8849H51.1575C51.1575 21.397 51.2272 20.8394 51.3666 20.3516H42.2363Z" fill="black"/>
<path d="M1.53329 90.2576H1.3939C1.1848 90.2576 1.04541 90.397 1.04541 90.6061C1.04541 90.8152 1.1848 90.9546 1.3939 90.9546H1.53329C1.74238 90.9546 1.88177 90.8152 1.88177 90.6061C1.88177 90.397 1.74238 90.2576 1.53329 90.2576ZM88.7242 90.2576H88.3757V84.8909C88.3757 80.2212 85.9363 75.9 81.8939 73.5303C83.5666 70.9515 84.403 67.9545 84.403 64.8182V52.4121C84.403 48.0909 82.7303 43.9788 79.6636 40.9121C76.5969 37.8455 72.5545 36.1727 68.1636 36.1727C59.2424 36.1727 51.9242 43.4212 51.9242 52.4121V64.8182C51.9242 67.8152 52.7606 70.6727 54.2242 73.1818C49.903 75.4818 47.1848 80.0121 47.1848 84.8909V90.2576H44.606V84.8909C44.606 79.0364 40.703 73.8788 35.1272 72.2061L30.8757 70.9515C33.4545 69.0697 35.2666 66.1424 35.6848 62.797C37.706 62.6576 39.2394 60.9848 39.2394 58.9636C39.2394 57.7788 38.6818 56.7333 37.9151 56.0364C38.7515 54.7121 39.5181 52.6909 39.5181 49.6939C39.5181 47.3242 38.8909 45.5121 37.706 44.2576C36.3121 42.8636 34.6394 42.6545 34.0818 42.5848C33.4545 41.8182 30.0394 38.0545 24.7424 37.8455C20.6303 37.6364 16.5181 39.5879 12.4757 43.7C11.9181 43.9788 8.57268 45.7212 8.50299 50.8788C8.43329 53.2485 9.13026 54.9909 9.89693 56.1758C9.19996 56.8727 8.71208 57.8485 8.71208 58.9636C8.71208 60.9848 10.3151 62.6576 12.2666 62.797C12.5454 65.4455 13.7303 67.8849 15.6121 69.7667C16.0303 70.1849 16.5181 70.603 17.0757 70.9515L12.8939 72.2061C7.31814 73.8788 3.41511 79.1061 3.41511 84.8909V90.2576H3.27571C3.06662 90.2576 2.92723 90.397 2.92723 90.6061C2.92723 90.8152 3.06662 90.9546 3.27571 90.9546H88.7242C88.9333 90.9546 89.0727 90.8152 89.0727 90.6061C89.0727 90.397 88.9333 90.2576 88.7242 90.2576ZM35.8939 55.8273C36.3121 55.897 36.7303 56.0364 37.0787 56.1758C36.6606 56.7333 36.2424 57.0818 35.8939 57.2909V55.8273ZM38.6818 58.9636C38.6818 60.5667 37.4272 61.8909 35.8939 62.1V58.197C36.2424 57.9879 36.9394 57.5697 37.6363 56.6636C38.2636 57.2212 38.6818 58.0576 38.6818 58.9636ZM9.40905 50.8788C9.47874 45.8606 12.8939 44.3273 13.0333 44.2576C13.103 44.2576 13.103 44.1879 13.1727 44.1879C16.8666 40.4242 20.6303 38.4727 24.3242 38.4727H24.8818C30.2484 38.7515 33.7333 43.0727 33.803 43.0727C33.8727 43.1424 33.9424 43.2121 34.0818 43.2121C34.0818 43.2121 35.9636 43.2121 37.3575 44.6758C38.4727 45.7909 39.0303 47.4636 38.9606 49.6242C38.9606 52.4818 38.2636 54.3636 37.4969 55.6182C37.009 55.3394 36.5212 55.2 35.8939 55.1303V53.4576C35.8939 53.3182 35.8242 53.1788 35.6848 53.1788C33.1757 51.8546 32.7575 49.6242 32.7575 49.6242C32.7575 49.4848 32.6181 49.3455 32.4787 49.3455C32.3394 49.3455 32.2 49.3455 32.1303 49.4849C26.2757 57.3606 16.1 51.2273 15.6818 50.9485C15.6121 50.8788 15.4727 50.8788 15.403 50.9485C15.3333 51.0182 15.1939 51.0879 15.1939 51.1576C14.6363 52.9 13.103 52.9 12.8242 52.9C12.7545 52.9 12.6151 52.9 12.5454 52.9697C12.4757 53.0394 12.406 53.1091 12.406 53.2485V55.2C11.7787 55.2697 11.2212 55.4788 10.7333 55.8273C9.96662 54.6424 9.33935 53.0394 9.40905 50.8788ZM12.3363 55.8273V57.6394C11.9878 57.3606 11.5 56.9424 11.0818 56.3152C11.4303 56.1061 11.8484 55.897 12.3363 55.8273ZM12.406 62.1C10.8727 61.8909 9.61814 60.5667 9.61814 58.9636C9.61814 58.1273 9.96662 57.3606 10.5242 56.803C11.2909 57.8485 12.1272 58.4061 12.406 58.6152V62.1ZM13.103 61.4727V53.5273H13.6606C13.7303 53.5273 13.8 53.4576 13.8697 53.4576C13.9394 53.4576 13.9394 53.4576 14.009 53.3879C14.0787 53.3879 14.1484 53.3182 14.2181 53.3182C14.2878 53.3182 14.3575 53.2485 14.3575 53.2485C14.4272 53.1788 14.4969 53.1788 14.5666 53.1091C14.6363 53.1091 14.6363 53.0394 14.706 53.0394L14.9151 52.8303L15.0545 52.6909C15.1242 52.6212 15.1939 52.5515 15.2636 52.4121L15.403 52.2727C15.4727 52.1333 15.6121 51.9242 15.6818 51.7849C17.6333 52.8303 26.6939 57.2909 32.2697 50.4606C32.6181 51.297 33.3848 52.6909 35.1969 53.7364V61.4727C35.1969 67.5364 30.2484 72.4849 24.1848 72.4849C21.2575 72.4849 18.4697 71.3697 16.3787 69.2788C14.2878 67.1879 13.103 64.4 13.103 61.4727ZM19.0272 71.997C22.1636 73.5303 25.9272 73.6697 29.3424 71.997V72.2758C29.3424 75.1333 27.0424 77.4333 24.1848 77.4333C21.3272 77.4333 19.0272 75.1333 19.0272 72.2758V71.997ZM4.32117 90.2576V88.4455H9.54844C9.75753 88.4455 9.89693 88.3061 9.89693 88.097C9.89693 87.8879 9.75753 87.7485 9.54844 87.7485H4.32117V84.8909C4.32117 79.3849 8.01511 74.4364 13.3121 72.903L18.0515 71.5091C18.1212 71.5788 18.1909 71.6485 18.3303 71.6485V72.2758C18.3303 75.4818 20.9787 78.1303 24.1848 78.1303C27.3909 78.1303 30.0394 75.4818 30.0394 72.2758V71.6485C30.109 71.5788 30.1787 71.5788 30.2484 71.5091L35.0575 72.903C40.3545 74.4364 44.0484 79.3849 44.0484 84.8909V90.2576H4.32117ZM52.6909 52.4121C52.6909 43.8394 59.6606 36.8697 68.2333 36.8697C72.4151 36.8697 76.2484 38.4727 79.2454 41.4C82.1727 44.3273 83.7757 48.2303 83.7757 52.4121V64.8182C83.7757 67.8152 82.9394 70.6727 81.3363 73.1818C80.5697 72.7636 79.7333 72.4152 78.8969 72.2061L74.6454 70.9515L74.5757 70.7424V69.6273C77.8515 67.5364 80.0121 63.9121 80.0121 59.7303V51.3667C80.0121 51.2273 79.9424 51.1576 79.803 51.0879C79.6636 51.0182 79.5939 51.0182 79.4545 51.0879C78.409 51.7152 77.2939 51.9939 76.0394 51.9939C73.6 51.9939 71.3 50.7394 70.1151 48.7182C70.0454 48.5788 69.906 48.5091 69.7666 48.5788C69.6272 48.5788 69.4878 48.6485 69.4878 48.7879C68.0939 51.7849 64.8181 53.8061 61.403 53.8061C59.8697 53.8061 58.3363 53.3879 57.0121 52.6212C56.8727 52.5515 56.803 52.5515 56.6636 52.6212C56.5242 52.6909 56.4545 52.8303 56.4545 52.9V59.7303C56.4545 62.8667 57.7091 65.7939 59.8697 68.0242C60.2878 68.4424 60.6363 68.7212 61.1242 69.0697V70.7424L61.0545 70.9515L56.803 72.2061C56.1757 72.4152 55.5484 72.6242 54.9909 72.903C53.5272 70.4636 52.7606 67.7455 52.7606 64.8182V52.4121H52.6909ZM67.8151 77.4333L61.8212 71.4394V69.5576C65.4454 71.9273 70.0454 72.0667 73.8091 70.0455V71.4394L67.8151 77.4333ZM68.2333 70.8121C62.1697 70.8121 57.2212 65.9333 57.2212 59.8V53.5273C58.5454 54.1546 60.009 54.503 61.4727 54.503C64.9575 54.503 68.303 52.5515 69.906 49.6242C71.3 51.5061 73.6697 52.7606 76.109 52.7606C77.2242 52.7606 78.3394 52.4818 79.3151 51.9939V59.8C79.2454 65.8636 74.2969 70.8121 68.2333 70.8121ZM61.3333 71.9273L67.2575 77.8515C65.5848 78.5485 63.6333 78.2 62.3091 76.8758C60.9848 75.5515 60.6363 73.6 61.3333 71.9273ZM74.3666 71.9273C75.0636 73.6 74.7151 75.5515 73.3909 76.8758C72.0666 78.2 70.1151 78.5485 68.4424 77.8515L74.3666 71.9273ZM47.9515 90.2576V84.8909C47.9515 79.5243 51.506 74.5061 56.9424 72.903L60.6363 71.7879C59.8697 73.7394 60.2878 75.9 61.8212 77.3636C63.3545 78.897 65.7242 79.3849 67.8848 78.3394C69.9757 79.3849 72.3454 78.897 73.9484 77.3636C75.4121 75.9 75.8303 73.7394 75.1333 71.7879L78.8272 72.903C79.7333 73.1818 80.5697 73.5303 81.406 73.9485C85.3788 76.1788 87.8181 80.3606 87.8181 84.8909V90.2576H47.9515ZM90.606 90.2576H90.4666C90.2575 90.2576 90.1181 90.397 90.1181 90.6061C90.1181 90.8152 90.2575 90.9546 90.4666 90.9546H90.606C90.8151 90.9546 90.9545 90.8152 90.9545 90.6061C90.9545 90.397 90.8151 90.2576 90.606 90.2576Z" fill="black"/>
<path d="M29.412 58.0575C28.6453 58.0575 28.0877 58.6848 28.0877 59.3818C28.0877 60.0787 28.715 60.706 29.412 60.706C30.1089 60.706 30.7362 60.0787 30.7362 59.3818C30.7362 58.6848 30.1089 58.0575 29.412 58.0575ZM18.818 58.0575C18.0514 58.0575 17.4938 58.6848 17.4938 59.3818C17.4938 60.0787 18.1211 60.706 18.818 60.706C19.515 60.706 20.1423 60.0787 20.1423 59.3818C20.1423 58.6848 19.515 58.0575 18.818 58.0575ZM27.2514 67.1181C27.1817 66.9787 26.9726 66.909 26.7635 66.9787C24.9514 68.0242 23.1392 68.0242 21.3271 66.9787C21.1877 66.909 20.9786 66.909 20.8392 67.1181C20.7695 67.2575 20.7695 67.4666 20.9786 67.606C22.9998 68.7909 25.0908 68.7909 27.112 67.606C27.3211 67.4666 27.3211 67.2575 27.2514 67.1181ZM27.0423 55.5484C27.0423 55.5484 30.318 54.0848 32.8968 55.6878C32.9665 55.7575 33.0362 55.7575 33.1059 55.7575C33.2453 55.7575 33.315 55.6878 33.3847 55.6181C33.5241 55.4787 33.4544 55.2696 33.315 55.1303C30.4574 53.2484 26.9726 54.8515 26.8332 54.9212C26.6241 54.9909 26.5544 55.2 26.6938 55.409C26.6241 55.5484 26.8332 55.6181 27.0423 55.5484ZM20.9786 55.5484C21.1877 55.6181 21.3271 55.5484 21.4665 55.409C21.5362 55.2 21.4665 55.0606 21.3271 54.9212C21.1877 54.8515 17.7029 53.3181 14.8453 55.1303C14.7059 55.2 14.6362 55.4787 14.7756 55.6181C14.8453 55.6878 14.9847 55.7575 15.0544 55.7575C15.1241 55.7575 15.1938 55.7575 15.2635 55.6878C17.7029 54.0151 20.9786 55.4787 20.9786 55.5484ZM12.1968 87.7484H11.3604C11.1514 87.7484 11.012 87.8878 11.012 88.0969C11.012 88.306 11.1514 88.4454 11.3604 88.4454H12.1968C12.4059 88.4454 12.5453 88.306 12.5453 88.0969C12.5453 87.8878 12.3362 87.7484 12.1968 87.7484ZM67.815 81.0575C67.1877 81.0575 66.7695 81.5454 66.7695 82.103C66.7695 82.7303 67.2574 83.2181 67.815 83.2181C68.4423 83.2181 68.8604 82.7303 68.8604 82.103C68.9301 81.5454 68.4423 81.0575 67.815 81.0575ZM67.815 84.8909C67.1877 84.8909 66.7695 85.3787 66.7695 85.9363C66.7695 86.5636 67.2574 87.0515 67.815 87.0515C68.4423 87.0515 68.8604 86.5636 68.8604 85.9363C68.9301 85.3787 68.4423 84.8909 67.815 84.8909ZM54.6423 78.0606C54.5029 77.9212 54.2938 77.9212 54.1544 78.0606L52.1332 80.0818C51.9938 80.2212 51.9938 80.4303 52.1332 80.5696C52.2726 80.709 52.4817 80.709 52.6211 80.5696L54.6423 78.5484C54.7817 78.409 54.7817 78.2 54.6423 78.0606ZM54.7817 79.4545L53.5271 80.709C53.3877 80.8484 53.3877 81.0575 53.5271 81.1969C53.6665 81.3363 53.8756 81.3363 54.015 81.1969L55.2695 79.9424C55.4089 79.803 55.4089 79.5939 55.2695 79.4545C55.1301 79.3151 54.9211 79.3151 54.7817 79.4545ZM62.8665 55.9666H60.915C60.7059 55.9666 60.5665 56.106 60.5665 56.3151C60.5665 56.5242 60.7059 56.6636 60.915 56.6636H61.7514C61.2635 57.5697 61.8908 58.6151 62.9362 58.6151C63.7029 58.6151 64.2604 57.9878 64.2604 57.2909C64.2604 56.5939 63.6332 55.9666 62.8665 55.9666ZM75.412 55.9666H73.4604C72.6938 55.9666 72.1362 56.5939 72.1362 57.2909C72.1362 57.9878 72.7635 58.6151 73.4604 58.6151C74.1574 58.6151 74.7847 57.9878 74.7847 57.2909C74.7847 57.0818 74.715 56.8727 74.6453 56.6636H75.412C75.621 56.6636 75.7604 56.5242 75.7604 56.3151C75.7604 56.106 75.5514 55.9666 75.412 55.9666ZM30.9453 31.9909H32.6877V36.5212C32.6877 36.6606 32.7574 36.7303 32.8968 36.8C33.0362 36.8697 33.1756 36.8697 33.2453 36.8L40.9817 31.9909H52.5514L60.2877 36.8C60.3574 36.8 60.4271 36.8697 60.4968 36.8697C60.7059 36.8697 60.8453 36.7303 60.8453 36.5212V31.9909H62.6574C64.2604 31.9909 65.515 30.7363 65.515 29.1333V11.9878C65.515 10.3848 64.2604 9.13026 62.6574 9.13026H55.8968C55.3392 4.59996 51.5059 1.04541 46.8362 1.04541C42.1665 1.04541 38.3332 4.59996 37.7756 9.13026H30.9453C29.3423 9.13026 28.0877 10.3848 28.0877 11.9878V29.203C28.0877 30.7363 29.3423 31.9909 30.9453 31.9909ZM46.7665 1.74238C51.1574 1.74238 54.7817 5.15753 55.1998 9.47874C55.1998 9.68783 55.2695 9.96662 55.2695 10.1757C55.2695 12.4757 54.5029 13.9394 53.3877 15.4727L53.318 15.5424C52.7604 16.309 51.018 18.8878 50.8786 21.4666H48.9968V14.4272H49.3453C50.8089 14.4272 51.9938 13.2424 51.9938 11.7787C51.9938 10.803 51.1574 9.96662 50.1817 9.96662C49.2059 9.96662 48.3695 10.803 48.3695 11.7787V13.7303H45.512V11.7787C45.512 10.803 44.6756 9.96662 43.6998 9.96662C42.7241 9.96662 41.8877 10.803 41.8877 11.7787C41.8877 13.2424 43.0726 14.4272 44.5362 14.4272H44.8847V21.5363H43.0029C42.8635 18.8878 41.1211 16.3787 40.5635 15.6121C39.0301 14.0787 38.3332 12.1272 38.3332 10.1757C38.3332 5.50602 42.1665 1.74238 46.7665 1.74238ZM49.6241 26.5545C49.4847 27.3212 48.7877 27.8787 47.9514 27.8787H45.5817C44.7453 27.8787 44.118 27.3212 43.9089 26.5545H49.6241ZM50.0423 25.8575H43.5604C43.1423 25.8575 42.7938 25.509 42.7938 25.0909V24.3939H50.8089V25.0909C50.8089 25.509 50.4604 25.8575 50.0423 25.8575ZM50.8089 23.6969H42.7938V22.2333H50.8089V23.6969ZM44.6756 13.7303H44.3271C43.2817 13.7303 42.3756 12.8242 42.3756 11.7787C42.3756 11.1515 42.8635 10.6636 43.4908 10.6636C44.118 10.6636 44.6059 11.1515 44.6059 11.7787V13.7303H44.6756ZM48.2301 21.5363H45.3726V14.4272H48.2301V21.5363ZM48.9271 13.7303V11.7787C48.9271 11.1515 49.415 10.6636 50.0423 10.6636C50.6695 10.6636 51.1574 11.1515 51.1574 11.7787C51.1574 12.8242 50.2514 13.7303 49.2059 13.7303H48.9271ZM28.7847 11.9878C28.7847 10.803 29.7604 9.82723 30.9453 9.82723H37.7059V10.1757C37.7059 12.3363 38.4726 14.4272 39.8665 16.0303C40.4241 16.7272 42.1665 19.306 42.1665 21.8848V25.0909C42.1665 25.7878 42.6544 26.3454 43.2817 26.4848C43.4211 27.6697 44.3968 28.5757 45.6514 28.5757H48.0211C49.2059 28.5757 50.2514 27.6697 50.3908 26.4848C51.018 26.3454 51.5059 25.7878 51.5059 25.0909V21.8848C51.5059 19.3757 53.318 16.7272 53.8059 16.0303L53.8756 15.9606L53.9453 15.8909C55.1998 14.2878 55.8968 12.2666 55.8968 10.2454V9.89692H62.5877C63.7726 9.89692 64.7483 10.8727 64.7483 12.0575V29.2727C64.7483 30.4575 63.7726 31.4333 62.5877 31.4333H60.4271C60.218 31.4333 60.0786 31.5727 60.0786 31.7818V36.0333L52.8301 31.3636C52.7604 31.3636 52.6908 31.2939 52.6211 31.2939H40.8423C40.7726 31.2939 40.7029 31.2939 40.6332 31.3636L33.315 35.8939V31.6424C33.315 31.4333 33.1756 31.2939 32.9665 31.2939H30.8756C29.6908 31.2939 28.715 30.3181 28.715 29.1333V11.9878H28.7847Z" fill="black"/>
</g>
<defs>
<clipPath id="clip0_207_2012">
<rect width="92" height="92" fill="white"/>
</clipPath>
</defs>
</svg>
