<svg width="92" height="92" viewBox="0 0 92 92" fill="none" xmlns="http://www.w3.org/2000/svg">
<g clip-path="url(#clip0_207_1967)">
<g clip-path="url(#clip1_207_1967)">
<path d="M68.6226 87.5439C74.7952 87.5439 79.7992 86.7957 79.7992 85.8728C79.7992 84.9498 74.7952 84.2017 68.6226 84.2017C62.45 84.2017 57.446 84.9498 57.446 85.8728C57.446 86.7957 62.45 87.5439 68.6226 87.5439Z" fill="#473CBA"/>
<path d="M85.8189 45.1375C91.0298 41.4718 97.0493 29.6484 84.9025 22.4968C72.7376 15.3453 48.1204 31.2836 39.0821 24.9406C30.0439 18.5976 4.90558 22.6586 12.8478 50.0429C18.4001 69.1797 17.5915 77.625 31.5173 82.2968C50.097 88.514 63.9689 71.5156 66.0353 58.6859C68.0837 45.8562 78.0564 50.582 85.8189 45.1375Z" fill="#79A1E8"/>
<path d="M59.4405 82.1711H58.4882C51.5343 82.1711 45.8921 76.5109 45.8921 69.575V47.2578C45.8921 46.8625 46.2155 46.5391 46.6108 46.5391C47.0062 46.5391 47.3296 46.8625 47.3296 47.2578V69.575C47.3296 75.7203 52.3249 80.7156 58.4702 80.7156H59.4226C65.5679 80.7156 70.5632 75.7203 70.5632 69.575V47.2578C70.5632 46.8625 70.8866 46.5391 71.2819 46.5391C71.6772 46.5391 72.0007 46.8625 72.0007 47.2578V69.575C72.0366 76.5289 66.3944 82.1711 59.4405 82.1711Z" fill="#4B31AA"/>
<path d="M73.9952 16.8188L73.4741 16.5672L71.9647 15.0579C71.246 14.3391 70.078 14.3391 69.3593 15.0579L67.8499 16.5672L67.3288 16.8188C63.2679 18.6875 60.8241 22.9282 61.2554 27.3844L63.3397 49.3422C63.5374 51.3727 64.8132 53.1516 66.6819 53.9782L70.671 55.7391L74.66 53.9782C76.5288 53.1516 77.8046 51.3727 78.0022 49.3422L80.0866 27.3844C80.4819 22.9282 78.0561 18.6875 73.9952 16.8188Z" fill="#F9D015"/>
<path d="M63.25 48.3898L63.3398 49.3421C63.5375 51.3726 64.8133 53.1515 66.682 53.9781L70.6711 55.757L74.6602 53.9781C76.5289 53.1515 77.8047 51.3726 78.0023 49.3421L79.6555 32.0203L63.25 48.3898Z" fill="#DDB717"/>
<path d="M72.0368 30.8882C71.6415 30.8882 71.318 30.5648 71.318 30.1695V27.1687C71.318 26.7734 71.6415 26.45 72.0368 26.45C72.4321 26.45 72.7555 26.7734 72.7555 27.1687V30.1695C72.7555 30.5648 72.4321 30.8882 72.0368 30.8882ZM69.2876 30.8882C68.8922 30.8882 68.5688 30.5648 68.5688 30.1695V27.1687C68.5688 26.7734 68.8922 26.45 69.2876 26.45C69.6829 26.45 70.0063 26.7734 70.0063 27.1687V30.1695C70.0063 30.5648 69.6829 30.8882 69.2876 30.8882ZM66.5383 30.8882C66.143 30.8882 65.8196 30.5648 65.8196 30.1695V27.1687C65.8196 26.7734 66.143 26.45 66.5383 26.45C66.9336 26.45 67.2571 26.7734 67.2571 27.1687V30.1695C67.2571 30.5648 66.9336 30.8882 66.5383 30.8882ZM74.786 30.8882C74.3907 30.8882 74.0672 30.5648 74.0672 30.1695V27.1687C74.0672 26.7734 74.3907 26.45 74.786 26.45C75.1813 26.45 75.5047 26.7734 75.5047 27.1687V30.1695C75.5047 30.5648 75.1813 30.8882 74.786 30.8882Z" fill="#4B31AA"/>
<path d="M69.521 62.2798H71.803C74.1749 62.2798 76.1155 60.3571 76.1155 57.9673V52.936H65.2264V57.9673C65.2085 60.3392 67.1311 62.2798 69.521 62.2798Z" fill="#7693DD"/>
<path d="M74.3008 16.1538L73.8875 15.9562L72.468 14.5366C71.4617 13.5304 69.8445 13.5304 68.8383 14.5366L67.4188 15.9562L67.0055 16.1538C62.675 18.1483 60.0695 22.6944 60.5188 27.4382L62.6031 49.396C62.7469 50.9054 63.4297 52.289 64.4719 53.3312V57.9671C64.4719 60.7343 66.736 62.9983 69.5031 62.9983H71.7852C74.5524 62.9983 76.8164 60.7343 76.8164 57.9671V53.3312C77.8586 52.289 78.5414 50.9054 78.6852 49.396L80.7695 27.4382C81.2367 22.6944 78.6313 18.1483 74.3008 16.1538ZM75.3789 57.9671C75.3789 59.9436 73.7797 61.5429 71.8031 61.5429H69.5211C67.5445 61.5429 65.9453 59.9436 65.9453 57.9671V53.6546H75.3789V57.9671ZM70.5813 52.2171L69.1078 33.1163H72.2164L70.743 52.1991H70.5813V52.2171ZM79.332 27.3124L77.2477 49.2702C77.1399 50.4022 76.6547 51.4265 75.9 52.2171H72.1985L73.6719 33.1343H74.5524C74.9477 33.1343 75.2711 32.8108 75.2711 32.4155C75.2711 32.0202 74.9477 31.6968 74.5524 31.6968H66.7719C66.3766 31.6968 66.0531 32.0202 66.0531 32.4155C66.0531 32.8108 66.3766 33.1343 66.7719 33.1343H67.6524L69.1258 52.2171H65.4063C64.6516 51.4265 64.1664 50.4022 64.0586 49.2702L61.9742 27.3124C61.5789 23.1796 63.843 19.2265 67.6344 17.4835L68.1555 17.2319C68.2274 17.196 68.2992 17.1421 68.3711 17.0882L69.8805 15.5788C70.0961 15.3632 70.3836 15.2554 70.6711 15.2554C70.9586 15.2554 71.2461 15.3632 71.4617 15.5788L72.9711 17.0882C73.025 17.1421 73.0969 17.196 73.1867 17.2319L73.7078 17.4835C77.4633 19.2085 79.7274 23.1616 79.332 27.3124ZM70.7789 10.5835C70.3836 10.5835 70.0602 10.2601 70.0602 9.86475V5.19287C70.0602 4.79756 70.3836 4.47412 70.7789 4.47412C71.1742 4.47412 71.4977 4.79756 71.4977 5.19287V9.86475C71.4977 10.2601 71.1742 10.5835 70.7789 10.5835ZM63.825 12.1468C63.5914 12.1468 63.3578 12.021 63.2141 11.8054L60.8242 8.10381C60.6086 7.7624 60.6985 7.31318 61.0399 7.09756C61.3813 6.88193 61.8305 6.97178 62.0461 7.31318L64.436 11.0147C64.6516 11.3562 64.5617 11.8054 64.2203 12.021C64.0945 12.0929 63.9508 12.1468 63.825 12.1468ZM59.8719 18.364C59.7641 18.364 59.6563 18.346 59.5485 18.2921L56.4399 16.7288C56.0805 16.5491 55.9367 16.1179 56.1164 15.7585C56.2961 15.3991 56.7274 15.2554 57.0867 15.4351L60.1953 16.9983C60.5547 17.178 60.6985 17.6093 60.5188 17.9687C60.393 18.2202 60.1414 18.364 59.8719 18.364ZM77.7149 12.1468C77.5711 12.1468 77.4453 12.1108 77.3195 12.039C76.9781 11.8233 76.8883 11.3741 77.1039 11.0327L79.4938 7.33115C79.7094 6.98974 80.1586 6.8999 80.5 7.11553C80.8414 7.33115 80.9313 7.78037 80.7156 8.12178L78.3258 11.8233C78.2 12.021 77.9664 12.1468 77.7149 12.1468ZM81.668 18.364C81.3985 18.364 81.1469 18.2202 81.0211 17.9687C80.8414 17.6093 80.9852 17.178 81.3445 16.9983L84.4531 15.4351C84.8125 15.2554 85.2438 15.3991 85.4235 15.7585C85.6031 16.1179 85.4594 16.5491 85.1 16.7288L81.9914 18.2921C81.8836 18.346 81.7758 18.364 81.668 18.364Z" fill="#4B31AA"/>
<path d="M30.9602 53.7266C30.9602 57.4641 33.979 60.4829 37.7165 60.4829C40.0883 60.4829 42.1727 59.261 43.3766 57.4102H43.6821C47.4196 57.4102 50.4383 54.3915 50.4383 50.654C50.4383 50.3125 50.4204 49.9891 50.3665 49.6657C52.8282 48.6594 54.5711 46.2336 54.5711 43.4125C54.5711 42.0829 54.1938 40.843 53.529 39.8008C54.9485 38.561 55.829 36.7461 55.829 34.7157C55.829 32.6852 54.9305 30.8704 53.529 29.6305C54.1938 28.5883 54.5711 27.3485 54.5711 26.0188C54.5711 23.1977 52.8282 20.7719 50.3665 19.7657C50.4204 19.4422 50.4383 19.1188 50.4383 18.7774C50.4383 15.0399 47.4196 12.0211 43.6821 12.0211H43.3766C42.1727 10.1704 40.0883 8.94849 37.7165 8.94849C33.979 8.94849 30.9602 11.9672 30.9602 15.7047V53.7266Z" fill="#473CBA"/>
<path d="M25.5875 53.7265C25.5875 57.464 22.5688 60.4827 18.8313 60.4827C16.4594 60.4827 14.375 59.2608 13.1711 57.4101H12.8656C9.14609 57.4101 6.10938 54.3913 6.10938 50.6538C6.10938 50.3124 6.12734 49.989 6.18125 49.6655C3.71953 48.6593 1.97656 46.2335 1.97656 43.4124C1.97656 42.0827 2.35391 40.8429 3.01875 39.8007C1.61719 38.5788 0.71875 36.764 0.71875 34.7335C0.71875 32.703 1.61719 30.8882 3.01875 29.6483C2.35391 28.6062 1.97656 27.3663 1.97656 26.0366C1.97656 23.2155 3.71953 20.7897 6.18125 19.7835C6.12734 19.4601 6.10938 19.1366 6.10938 18.7952C6.10938 15.0577 9.12813 12.039 12.8656 12.039H13.1711C14.375 10.1882 16.4594 8.96631 18.8313 8.96631C22.5688 8.96631 25.5875 11.9851 25.5875 15.7226V53.7265Z" fill="#B2D8EA"/>
<path d="M8.39136 32.3257C7.99604 32.3257 7.67261 32.6491 7.67261 33.0444C7.67261 33.4398 7.99604 33.7632 8.39136 33.7632C9.37964 33.7632 10.1882 34.5718 10.1882 35.5601C10.1882 36.5483 9.37964 37.3569 8.39136 37.3569C7.99604 37.3569 7.67261 37.6804 7.67261 38.0757C7.67261 38.471 7.99604 38.7944 8.39136 38.7944C10.1882 38.7944 11.6437 37.339 11.6437 35.5421C11.6437 33.7452 10.1882 32.3257 8.39136 32.3257ZM17.6812 48.6773C16.8187 48.7671 16.0281 49.1983 15.489 49.8812C14.95 50.564 14.6984 51.4085 14.7882 52.271C14.8242 52.6483 15.1476 52.9179 15.507 52.9179H15.5789C15.9742 52.8819 16.2617 52.5226 16.2257 52.1273C16.1718 51.6421 16.3156 51.1749 16.621 50.7976C16.9265 50.4202 17.3578 50.1866 17.8429 50.1327C18.2382 50.0968 18.5257 49.7374 18.4898 49.3421C18.4359 48.9288 18.0765 48.6413 17.6812 48.6773ZM18.1125 19.0288C18.5078 18.9929 18.7953 18.6335 18.7593 18.2382C18.7234 17.8429 18.364 17.5554 17.9507 17.5913C17.4656 17.6452 16.9984 17.5015 16.621 17.196C16.2437 16.8905 16.0101 16.4593 15.9562 15.9741C15.9203 15.5788 15.5609 15.2913 15.1476 15.3273C14.7523 15.3632 14.4648 15.7226 14.5007 16.1179C14.5906 16.9804 15.0218 17.771 15.7046 18.3101C16.2976 18.7773 16.9984 19.0288 17.7531 19.0288C17.8789 19.0468 17.9867 19.0288 18.1125 19.0288ZM18.382 35.4702H22.1734C22.5687 35.4702 22.8921 35.1468 22.8921 34.7515C22.8921 34.3562 22.5687 34.0327 22.1734 34.0327H18.382C17.9867 34.0327 17.6632 34.3562 17.6632 34.7515C17.6632 35.1468 17.9867 35.4702 18.382 35.4702Z" fill="#4B31AA"/>
<path d="M26.3242 15.7587C26.3242 11.6259 22.9641 8.28369 18.8492 8.28369C16.4414 8.28369 14.2133 9.41572 12.8117 11.3563C8.71484 11.3743 5.39062 14.7165 5.39062 18.8134C5.39062 18.9931 5.39062 19.1728 5.40859 19.3524C2.875 20.6103 1.25781 23.1798 1.25781 26.0548C1.25781 27.2767 1.54531 28.4626 2.12031 29.5228C0.772656 30.9063 0 32.7751 0 34.7337C0 36.6923 0.772656 38.561 2.12031 39.9446C1.56328 41.0048 1.25781 42.2087 1.25781 43.4126C1.25781 46.2876 2.875 48.8571 5.40859 50.1149C5.39062 50.2946 5.39062 50.4743 5.39062 50.654C5.39062 54.7509 8.71484 58.0931 12.7937 58.129C14.1953 60.0517 16.4234 61.2017 18.8313 61.2017C22.9641 61.2017 26.3062 57.8415 26.3062 53.7267V15.7587H26.3242ZM8.53516 54.8407C7.49297 53.7806 6.84609 52.3071 6.84609 50.7079C7.43906 50.8517 8.05 50.9415 8.66094 50.9415C11.0508 50.9415 13.4227 49.8274 14.8242 47.779C15.0578 47.4556 14.968 46.9884 14.6445 46.7728C14.3211 46.5392 13.8539 46.629 13.6383 46.9524C12.093 49.1626 8.9125 49.9532 6.46875 49.0009C4.16875 48.1204 2.71328 45.8743 2.71328 43.4126C2.71328 42.2626 3.03672 41.1665 3.64766 40.1962C3.84531 39.8907 3.77344 39.4954 3.50391 39.2618C2.19219 38.1118 1.4375 36.4587 1.4375 34.7337C1.4375 33.0087 2.19219 31.3556 3.50391 30.2056C3.77344 29.972 3.82734 29.5767 3.64766 29.2712C3.03672 28.3009 2.71328 27.2048 2.71328 26.0548C2.71328 23.647 4.13281 21.4907 6.325 20.5384C7.06172 20.2149 7.88828 20.0353 8.73281 20.0353C12.057 20.0353 14.7523 22.7306 14.7523 26.0548C14.7523 26.4501 15.0758 26.7735 15.4711 26.7735C15.8664 26.7735 16.1898 26.4501 16.1898 26.0548C16.1898 21.922 12.8297 18.5798 8.71484 18.5798C8.05 18.5798 7.42109 18.6696 6.81016 18.8313C6.81016 17.2142 7.45703 15.7407 8.49922 14.6446C8.53516 14.6267 8.57109 14.5907 8.58906 14.5728C10.943 12.2188 14.7703 12.2188 17.1062 14.5728C17.25 14.7165 17.4297 14.7884 17.6273 14.7884C17.825 14.7884 18.0047 14.7165 18.1484 14.5728C18.4359 14.2853 18.4359 13.836 18.1484 13.5485C17.1063 12.5063 15.8484 11.8415 14.5008 11.554C15.6148 10.404 17.1602 9.75713 18.7953 9.75713C22.1195 9.75713 24.8148 12.4524 24.8148 15.7767V20.1431H20.3047C19.9094 20.1431 19.5859 20.4665 19.5859 20.8618C19.5859 21.2571 19.9094 21.5806 20.3047 21.5806H24.8687V23.2517C24.3477 22.8743 23.7008 22.6587 23 22.6587C22.6047 22.6587 22.2812 22.9821 22.2812 23.3774C22.2812 23.7728 22.6047 24.0962 23 24.0962C23.9883 24.0962 24.7969 24.9048 24.7969 25.8931C24.7969 26.8813 23.9883 27.6899 23 27.6899C22.6047 27.6899 22.2812 28.0134 22.2812 28.4087C22.2812 28.804 22.6047 29.1274 23 29.1274C23.7008 29.1274 24.3297 28.9118 24.8687 28.5345V31.2298H13.6203C12.7578 31.122 11.9852 30.7087 11.4461 30.0259C10.8891 29.3431 10.6375 28.4806 10.7273 27.6181C10.7633 27.2228 10.4758 26.8634 10.0805 26.8274C9.68516 26.7735 9.32578 27.079 9.27187 27.4743C9.14609 28.7321 9.50547 29.972 10.2961 30.9603C11.0867 31.9485 12.2188 32.5595 13.4766 32.7032H24.8328V36.8899H17.3938C16.1359 37.0157 15.0039 37.6446 14.2133 38.6329C13.4227 39.6212 13.0633 40.861 13.1891 42.1188C13.225 42.4962 13.5484 42.7657 13.9078 42.7657H13.9797C14.375 42.7298 14.6625 42.3704 14.6266 41.9751C14.5367 41.0946 14.7883 40.2501 15.3453 39.5673C15.8844 38.9024 16.657 38.4712 17.5195 38.3634H24.8867V47.9048H20.5562C20.1609 47.9048 19.8375 48.2282 19.8375 48.6235C19.8375 49.0188 20.1609 49.3423 20.5562 49.3423H24.8508V53.7446C24.8508 57.0688 22.1555 59.7642 18.8313 59.7642C17.1961 59.7642 15.6688 59.0993 14.5367 57.9673C15.8664 57.6618 17.1422 56.997 18.1844 55.9548C18.4719 55.6673 18.4719 55.2181 18.1844 54.9306C17.8969 54.6431 17.4477 54.6431 17.1602 54.9306C14.8062 57.2665 10.8711 57.2126 8.53516 54.8407Z" fill="#4B31AA"/>
<path d="M29.0195 53.7266C29.0195 57.4641 32.0383 60.4829 35.7758 60.4829C38.1477 60.4829 40.232 59.261 41.4359 57.4102H41.7414C45.4789 57.4102 48.4977 54.3915 48.4977 50.654C48.4977 50.3125 48.4797 49.9891 48.4258 49.6657C50.8875 48.6594 52.6305 46.2336 52.6305 43.4125C52.6305 42.0829 52.2531 40.843 51.5883 39.8008C53.0078 38.561 53.8883 36.7461 53.8883 34.7157C53.8883 32.6852 52.9898 30.8704 51.5883 29.6305C52.2531 28.5883 52.6305 27.3485 52.6305 26.0188C52.6305 23.1977 50.8875 20.7719 48.4258 19.7657C48.4797 19.4422 48.4977 19.1188 48.4977 18.7774C48.4977 15.0399 45.4789 12.0211 41.7414 12.0211H41.4359C40.232 10.1704 38.1477 8.94849 35.7758 8.94849C32.0383 8.94849 29.0195 11.9672 29.0195 15.7047V53.7266Z" fill="#DFF1F7"/>
<path d="M46.2156 32.3257C46.6109 32.3257 46.9344 32.6491 46.9344 33.0444C46.9344 33.4398 46.6109 33.7632 46.2156 33.7632C45.2273 33.7632 44.4187 34.5718 44.4187 35.5601C44.4187 36.5483 45.2273 37.3569 46.2156 37.3569C46.6109 37.3569 46.9344 37.6804 46.9344 38.0757C46.9344 38.471 46.6109 38.7944 46.2156 38.7944C44.4187 38.7944 42.9633 37.339 42.9633 35.5421C42.9633 33.7452 44.4187 32.3257 46.2156 32.3257ZM36.9258 48.6773C37.7883 48.7671 38.5789 49.1983 39.118 49.8812C39.657 50.564 39.9086 51.4085 39.8188 52.271C39.7828 52.6483 39.4594 52.9179 39.1 52.9179H39.0281C38.6328 52.8819 38.3453 52.5226 38.3813 52.1273C38.4352 51.6421 38.2914 51.1749 37.9859 50.7976C37.6805 50.4202 37.2492 50.1866 36.7641 50.1327C36.3688 50.0968 36.0813 49.7374 36.1172 49.3421C36.1711 48.9288 36.5305 48.6413 36.9258 48.6773ZM36.4945 19.0288C36.0992 18.9929 35.8117 18.6335 35.8477 18.2382C35.8836 17.8429 36.243 17.5554 36.6562 17.5913C37.1414 17.6452 37.6086 17.5015 37.9859 17.196C38.3633 16.8905 38.5969 16.4593 38.6508 15.9741C38.6867 15.5788 39.0461 15.2913 39.4594 15.3273C39.8547 15.3632 40.1422 15.7226 40.1062 16.1179C40.0164 16.9804 39.5852 17.771 38.9023 18.3101C38.3094 18.7773 37.6086 19.0288 36.8539 19.0288C36.7461 19.0468 36.6203 19.0288 36.4945 19.0288ZM36.225 35.4702H32.4336C32.0383 35.4702 31.7148 35.1468 31.7148 34.7515C31.7148 34.3562 32.0383 34.0327 32.4336 34.0327H36.225C36.6203 34.0327 36.9438 34.3562 36.9438 34.7515C36.9438 35.1468 36.6203 35.4702 36.225 35.4702Z" fill="#4B31AA"/>
<path d="M56.5477 34.7336C56.5477 32.775 55.775 30.9062 54.4273 29.5227C54.9844 28.4625 55.2898 27.2586 55.2898 26.0547C55.2898 23.1797 53.6727 20.6102 51.1391 19.3523C51.157 19.1727 51.157 18.993 51.157 18.8133C51.157 14.7164 47.8328 11.3742 43.7539 11.3383C42.3523 9.41563 40.1242 8.26562 37.7164 8.26562C37.393 8.26562 37.0695 8.2836 36.7461 8.3375C36.4227 8.30156 36.0992 8.26562 35.7758 8.26562C31.643 8.26562 28.3008 11.6258 28.3008 15.7406V53.7086C28.3008 57.8414 31.6609 61.1836 35.7758 61.1836C36.0992 61.1836 36.4227 61.1656 36.7461 61.1117C37.0695 61.1477 37.375 61.1836 37.7164 61.1836C40.1242 61.1836 42.3523 60.0516 43.7539 58.1109C47.8508 58.075 51.157 54.7328 51.157 50.6359C51.157 50.4562 51.157 50.2766 51.1391 50.0969C53.6727 48.8391 55.2898 46.2695 55.2898 43.3945C55.2898 42.1727 55.0023 40.9867 54.4273 39.9266C55.775 38.5609 56.5477 36.6922 56.5477 34.7336ZM55.0922 34.7336C55.0922 36.4047 54.3914 38.0039 53.1695 39.1539C54.1039 37.8781 54.607 36.3328 54.607 34.7336C54.607 33.1344 54.0859 31.5891 53.1695 30.3133C54.3914 31.4633 55.0922 33.0625 55.0922 34.7336ZM53.8344 26.0547C53.8344 27.2047 53.5109 28.3008 52.9 29.2711C52.7742 29.4688 52.7563 29.7023 52.8281 29.9C52.7203 29.7742 52.6125 29.6484 52.4867 29.5227C53.0438 28.4625 53.3492 27.2586 53.3492 26.0547C53.3492 24.4195 52.8281 22.8922 51.9117 21.6344C53.1156 22.7664 53.8344 24.3477 53.8344 26.0547ZM49.7016 18.8133C49.7016 19.0648 49.6836 19.3344 49.6477 19.6039C49.5039 19.5141 49.3422 19.4422 49.1984 19.3523C49.2164 19.1727 49.2164 18.993 49.2164 18.8133C49.2164 17.1602 48.6773 15.6328 47.7609 14.393C48.9648 15.507 49.7016 17.0703 49.7016 18.8133ZM29.7383 53.7266V49.3242H34.0328C34.4281 49.3242 34.7516 49.0008 34.7516 48.6055C34.7516 48.2102 34.4281 47.8867 34.0328 47.8867H29.7383V38.3273H37.1055C37.968 38.4352 38.7406 38.8484 39.2797 39.5313C39.8367 40.2141 40.0883 41.0766 39.9984 41.9391C39.9625 42.3344 40.25 42.6938 40.6453 42.7297H40.7172C41.0766 42.7297 41.4 42.4602 41.4359 42.0828C41.5617 40.825 41.2023 39.5852 40.4117 38.5969C39.6211 37.6086 38.4891 36.9977 37.2312 36.8539H29.7562V32.6672H41.1125C42.3703 32.5414 43.5023 31.9125 44.293 30.9242C45.0836 29.9359 45.443 28.6961 45.3172 27.4383C45.2812 27.043 44.9219 26.7555 44.5086 26.7914C44.1133 26.8273 43.8258 27.1867 43.8617 27.582C43.9516 28.4625 43.7 29.307 43.143 29.9898C42.6039 30.6547 41.8313 31.0859 40.9688 31.1937H29.7203V28.4984C30.2414 28.8758 30.8883 29.0914 31.5891 29.0914C31.9844 29.0914 32.3078 28.768 32.3078 28.3727C32.3078 27.9773 31.9844 27.6539 31.5891 27.6539C30.6008 27.6539 29.7922 26.8453 29.7922 25.857C29.7922 24.8688 30.6008 24.0602 31.5891 24.0602C31.9844 24.0602 32.3078 23.7367 32.3078 23.3414C32.3078 22.9461 31.9844 22.6227 31.5891 22.6227C30.8883 22.6227 30.2594 22.8383 29.7203 23.2156V21.5445H34.2844C34.6797 21.5445 35.0031 21.2211 35.0031 20.8258C35.0031 20.4305 34.6797 20.107 34.2844 20.107H29.7203V15.7406C29.7203 12.4164 32.4156 9.72109 35.7398 9.72109C37.375 9.72109 38.9023 10.3859 40.0344 11.518C38.7047 11.8234 37.4289 12.4883 36.3867 13.5125C36.0992 13.8 36.0992 14.2492 36.3867 14.5367C36.5305 14.6805 36.7102 14.7523 36.9078 14.7523C37.1055 14.7523 37.2852 14.6805 37.4289 14.5367C39.7828 12.1828 43.6102 12.1828 45.9461 14.5367C45.982 14.5727 46.018 14.5906 46.0359 14.6086C47.0781 15.6867 47.725 17.1602 47.725 18.7953C47.1141 18.6336 46.4852 18.5437 45.8203 18.5437C41.6875 18.5437 38.3453 21.9039 38.3453 26.0188C38.3453 26.4141 38.6687 26.7375 39.0641 26.7375C39.4594 26.7375 39.7828 26.4141 39.7828 26.0188C39.7828 22.6945 42.4781 19.9992 45.8023 19.9992C46.6648 19.9992 47.4734 20.1789 48.2102 20.5023C50.4023 21.4727 51.8219 23.6109 51.8219 26.0188C51.8219 27.1688 51.4984 28.2648 50.8875 29.2352C50.6898 29.5406 50.7617 29.9359 51.0312 30.1695C52.343 31.3195 53.0977 32.9727 53.0977 34.6977C53.0977 36.4227 52.343 38.0758 51.0312 39.2258C50.7617 39.4594 50.7078 39.8547 50.8875 40.1602C51.4984 41.1305 51.8219 42.2266 51.8219 43.3766C51.8219 45.8383 50.3664 48.0664 48.0664 48.9648C45.6227 49.9172 42.4242 49.1266 40.8969 46.9164C40.6633 46.593 40.2141 46.5031 39.8906 46.7367C39.5672 46.9703 39.4773 47.4195 39.7109 47.743C41.1125 49.7734 43.4844 50.9055 45.8742 50.9055C46.4852 50.9055 47.0961 50.8336 47.6891 50.6719C47.6711 52.2711 47.0422 53.7445 46 54.8047C43.6641 57.1766 39.7289 57.2305 37.375 54.8766C37.0875 54.5891 36.6383 54.5891 36.3508 54.8766C36.0633 55.1641 36.0633 55.6133 36.3508 55.9008C37.393 56.943 38.6508 57.6078 39.9984 57.9133C38.8844 59.0633 37.3391 59.7102 35.7039 59.7102C32.4516 59.7461 29.7383 57.0508 29.7383 53.7266ZM47.7609 55.0742C48.6773 53.8344 49.2164 52.307 49.2164 50.6539C49.2164 50.4742 49.2164 50.2945 49.1984 50.1148C49.3602 50.043 49.5039 49.9531 49.6477 49.8633C49.6836 50.1328 49.7016 50.3844 49.7016 50.6539C49.7016 52.3969 48.9648 53.9781 47.7609 55.0742ZM51.9117 47.8328C52.8281 46.575 53.3492 45.0477 53.3492 43.4125C53.3492 42.1906 53.0617 41.0047 52.4867 39.9445C52.6125 39.8188 52.7203 39.693 52.8281 39.5672C52.7563 39.7648 52.7742 39.9984 52.9 40.1961C53.5109 41.1664 53.8344 42.2625 53.8344 43.4125C53.8344 45.1375 53.1156 46.7188 51.9117 47.8328Z" fill="#4B31AA"/>
</g>
</g>
<defs>
<clipPath id="clip0_207_1967">
<rect width="92" height="92" fill="white"/>
</clipPath>
<clipPath id="clip1_207_1967">
<rect width="92" height="92" fill="white"/>
</clipPath>
</defs>
</svg>
