<svg width="92" height="92" viewBox="0 0 92 92" fill="none" xmlns="http://www.w3.org/2000/svg">
<path d="M13.5225 82.026L6.29614 0.971802H85.7036L78.4701 82.0137L45.9517 91.029L13.5225 82.026Z" fill="#1572B6"/>
<path d="M46.0007 84.1383L72.2775 76.8531L78.4595 7.59863H46.0007V84.1383Z" fill="#33A9DC"/>
<path d="M46.0007 36.9646H59.1553L60.0638 26.7849H46.0007V16.8439H70.9284L70.6898 19.5112L68.246 46.9056H46.0007V36.9646Z" fill="white"/>
<path d="M46.0597 62.7821L46.0158 62.795L34.9449 59.8057L34.237 51.8772H24.2593L25.6515 67.4863L46.0144 73.1378L46.0597 73.1249V62.7821Z" fill="#EBEBEB"/>
<path d="M58.31 46.4851L57.1126 59.7978L46.0251 62.7907V73.1335L66.4046 67.4855L66.5541 65.8058L68.2834 46.4851H58.31Z" fill="white"/>
<path d="M46.0344 16.8439V26.7849H22.0224L21.8233 24.551L21.3705 19.5112L21.1326 16.8439H46.0344ZM46.0006 36.966V46.907H35.0691L34.87 44.6732L34.4165 39.6333L34.1793 36.966H46.0006Z" fill="#EBEBEB"/>
</svg>
