<svg width="81" height="67" viewBox="0 0 81 67" fill="none" xmlns="http://www.w3.org/2000/svg">
<path fill-rule="evenodd" clip-rule="evenodd" d="M76.7138 30.2572C79.7292 34.1214 77.6069 39.4585 73.1182 41.4273V41.4273C68.6294 43.3961 63.4674 41.0616 59.585 38.0696C54.6135 34.2382 47.7591 33.1678 41.6058 35.8667C35.4524 38.5656 31.5973 44.3333 31.0486 50.5859C30.6202 55.4687 28.8414 60.8475 24.3527 62.8163V62.8163C19.8639 64.7851 14.5 62.7315 13.6995 57.8958C11.1114 42.2618 19.298 26.2688 34.4761 19.6115C49.6542 12.9543 66.9651 17.7639 76.7138 30.2572Z" fill="#4871F7"/>
<mask id="path-2-inside-1_214_89" fill="white">
<path fill-rule="evenodd" clip-rule="evenodd" d="M73.9411 24.5511C76.9565 28.4153 74.8342 33.7524 70.3455 35.7212V35.7212C65.8567 37.69 60.6947 35.3555 56.8123 32.3634C51.8408 28.5321 44.9864 27.4616 38.8331 30.1606C32.6797 32.8595 28.8246 38.6272 28.2759 44.8798C27.8475 49.7625 26.0687 55.1414 21.58 57.1102V57.1102C17.0912 59.079 11.7273 57.0254 10.9268 52.1897C8.33866 36.5557 16.5253 20.5627 31.7034 13.9054C46.8815 7.24814 64.1924 12.0578 73.9411 24.5511Z"/>
</mask>
<path d="M58.0332 30.7793C52.5061 26.5198 44.8789 25.3249 38.0297 28.329L39.6364 31.9921C45.0939 29.5984 51.1755 30.5443 55.5915 33.9476L58.0332 30.7793ZM38.0297 28.329C31.1806 31.3331 26.8935 37.7537 26.2836 44.705L30.2683 45.0546C30.7556 39.5007 34.1788 34.3859 39.6364 31.9921L38.0297 28.329ZM30.9 12.0738C14.8643 19.1072 6.21977 36.0019 8.95364 52.5164L12.8999 51.8631C10.4576 37.1095 18.1862 22.0181 32.5067 15.737L30.9 12.0738ZM75.5179 23.3207C65.2201 10.1238 46.9358 5.04042 30.9 12.0738L32.5067 15.737C46.8272 9.45586 63.1646 13.9917 72.3644 25.7814L75.5179 23.3207ZM20.7766 55.2787C17.1293 56.8784 13.4284 55.0556 12.8999 51.8631L8.95364 52.5164C10.0262 58.9953 17.0531 61.2797 22.3833 58.9418L20.7766 55.2787ZM26.2836 44.705C26.0829 46.9918 25.5713 49.3028 24.6484 51.2204C23.7313 53.126 22.4638 54.5387 20.7766 55.2787L22.3833 58.9418C25.1849 57.713 27.0511 55.4518 28.2527 52.955C29.4485 50.4703 30.0405 47.6505 30.2683 45.0546L26.2836 44.705ZM71.1488 37.5528C76.479 35.2149 79.5579 28.4981 75.5179 23.3207L72.3644 25.7814C74.3551 28.3326 73.1894 32.2899 69.5421 33.8897L71.1488 37.5528ZM69.5421 33.8897C67.855 34.6297 65.9571 34.6053 63.9341 33.9894C61.8982 33.3695 59.8515 32.1806 58.0332 30.7793L55.5915 33.9476C57.6556 35.5383 60.131 37.0127 62.769 37.8159C65.4197 38.623 68.3472 38.7816 71.1488 37.5528L69.5421 33.8897Z" fill="#002E5A" mask="url(#path-2-inside-1_214_89)"/>
</svg>
