<svg width="99" height="110" viewBox="0 0 99 110" fill="none" xmlns="http://www.w3.org/2000/svg">
<path d="M40.9173 95.0748C21.4985 81.404 16.8388 54.5796 30.5096 35.1608C44.1804 15.742 71.0047 11.0823 90.4235 24.7531C65.6704 59.9139 65.6704 59.9139 40.9173 95.0748Z" fill="#FCA61F"/>
<path d="M43.1024 107.605C24.8187 94.0841 20.5873 68.3638 33.7477 49.67C46.9081 30.9761 72.5486 26.2856 91.4439 38.9382L91.3081 39.131L91.1661 39.3327L91.0247 39.5335L90.8839 39.7336L90.7436 39.9329L90.6038 40.1314L90.4646 40.3292L90.3259 40.5261L90.1878 40.7223L90.0502 40.9178L89.9132 41.1125L89.7766 41.3064L89.6407 41.4996L89.5052 41.692L89.3703 41.8836L89.2358 42.0746L89.102 42.2648L88.9686 42.4542L88.8357 42.6429L88.7034 42.8309L88.5716 43.0181L88.4403 43.2047L88.3095 43.3904L88.1792 43.5755L88.0494 43.7599L87.9201 43.9435L87.7913 44.1265L87.663 44.3087L87.5352 44.4902L87.4079 44.6711L87.2811 44.8512L87.1548 45.0306L87.029 45.2094L86.9036 45.3874L86.7788 45.5648L86.6544 45.7415L86.5305 45.9175L86.407 46.0928L86.2841 46.2675L86.1616 46.4414L86.0396 46.6148L85.918 46.7874L85.7969 46.9594L85.6763 47.1308L85.5561 47.3014L85.4364 47.4715L85.3172 47.6409L85.1984 47.8096L85.0801 47.9777L84.9622 48.1452L84.8447 48.312L84.7277 48.4782L84.6111 48.6438L84.495 48.8087L84.3793 48.973L84.2641 49.1367L84.1493 49.2998L84.0349 49.4623L83.921 49.6242L83.8074 49.7854L83.6943 49.9461L83.5817 50.1061L83.4694 50.2656L83.3576 50.4244L83.2461 50.5827L83.1351 50.7404L83.0245 50.8975L82.9144 51.054L82.8046 51.2099L82.6952 51.3653L82.5862 51.5201L82.4777 51.6743L82.3695 51.828L82.2617 51.9811L82.1543 52.1336L82.0473 52.2856L81.9407 52.437L81.8345 52.5879L81.7287 52.7382L81.6233 52.888L81.5182 53.0372L81.4135 53.1859L81.3092 53.3341L81.2053 53.4817L81.1017 53.6288L80.9985 53.7754L80.8957 53.9215L80.7932 54.067L80.6911 54.212L80.5894 54.3566L80.488 54.5006L80.387 54.6441L80.2863 54.7871L80.186 54.9296L80.086 55.0716L79.9864 55.2131L79.8871 55.3541L79.7882 55.4946L79.6896 55.6347L79.5913 55.7742L79.4934 55.9133L79.3958 56.0519L79.2986 56.1901L79.2017 56.3277L79.1051 56.4649L79.0088 56.6017L78.9129 56.738L78.8172 56.8738L78.7219 57.0092L78.6269 57.1441L78.5323 57.2786L78.4379 57.4126L78.3438 57.5462L78.2501 57.6794L78.1567 57.8121L78.0635 57.9444L77.9707 58.0763L77.8782 58.2077L77.7859 58.3388L77.694 58.4694L77.6023 58.5996L77.511 58.7293L77.4199 58.8587L77.3291 58.9877L77.2386 59.1162L77.1484 59.2444L77.0584 59.3722L76.9687 59.4995L76.8793 59.6265L76.7902 59.7531L76.7014 59.8793L76.6128 60.0052L76.5245 60.1306L76.4364 60.2557L76.3486 60.3804L76.2611 60.5048L76.1738 60.6287L76.0868 60.7523L76 60.8756L75.9135 60.9985L75.8272 61.1211L75.7412 61.2433L75.6554 61.3651L75.5698 61.4866L75.4845 61.6078L75.3994 61.7286L75.3146 61.8492L75.23 61.9693L75.1456 62.0892L75.0615 62.2087L74.9776 62.3279L74.8939 62.4468L74.8104 62.5654L74.7271 62.6836L74.6441 62.8016L74.5613 62.9192L74.4787 63.0366L74.3963 63.1536L74.3141 63.2704L74.2321 63.3868L74.1503 63.503L74.0687 63.6189L73.9873 63.7345L73.9062 63.8498L73.8252 63.9648L73.7444 64.0796L73.6638 64.1941L73.5833 64.3083L73.5031 64.4223L73.4231 64.536L73.3432 64.6495L73.2635 64.7627L73.184 64.8756L73.1046 64.9883L73.0255 65.1008L72.9465 65.213L72.8677 65.3249L72.789 65.4367L72.7105 65.5482L72.6322 65.6595L72.554 65.7705L72.476 65.8813L72.3981 65.9919L72.3204 66.1023L72.2428 66.2125L72.1654 66.3224L72.0882 66.4322L72.011 66.5417L71.9341 66.6511L71.8572 66.7602L71.7805 66.8692L71.7039 66.978L71.6275 67.0865L71.5512 67.1949L71.475 67.3031L71.399 67.4112L71.323 67.519L71.2472 67.6267L71.1716 67.7342L71.096 67.8415L71.0205 67.9487L70.9452 68.0557L70.87 68.1626L70.7948 68.2693L70.7198 68.3759L70.6449 68.4823L70.5701 68.5885L70.4954 68.6947L70.4208 68.8007L70.3463 68.9065L70.2718 69.0122L70.1975 69.1178L70.1233 69.2233L70.0491 69.3286L69.975 69.4338L69.901 69.5389L69.8271 69.6439L69.7533 69.7488L69.6795 69.8536L69.6058 69.9583L69.5322 70.0628L69.4587 70.1673L69.3852 70.2717L69.3118 70.376L69.2384 70.4802L69.1651 70.5843L69.0919 70.6883L69.0187 70.7923L68.9456 70.8961L68.8725 70.9999L68.7995 71.1037L68.7265 71.2074L68.6535 71.311L68.5806 71.4145L68.5078 71.518L68.435 71.6214L68.3622 71.7248L68.2894 71.8282L68.2167 71.9315L68.144 72.0347L68.0713 72.1379L67.9987 72.2411L67.9261 72.3443L67.8535 72.4474L67.7809 72.5505L67.7083 72.6536L67.6358 72.7566L67.5632 72.8597L67.4907 72.9627L67.4182 73.0657L67.3457 73.1687L67.2731 73.2718L67.2006 73.3748L67.1281 73.4778L67.0556 73.5808L66.983 73.6838L66.9105 73.7869L66.8379 73.8899L66.7654 73.993L66.6928 74.0961L66.6202 74.1992L66.5476 74.3024L66.4749 74.4056L66.4023 74.5088L66.3296 74.612L66.2569 74.7153L66.1841 74.8187L66.1113 74.9221L66.0385 75.0255L65.9656 75.129L65.8928 75.2325L65.8198 75.3361L65.7468 75.4398L65.6738 75.5436L65.6007 75.6474L65.5276 75.7512L65.4544 75.8552L65.3812 75.9592L65.3079 76.0633L65.2345 76.1675L65.1611 76.2718L65.0876 76.3762L65.0141 76.4807L64.9404 76.5852L64.8668 76.6899L64.793 76.7947L64.7192 76.8996L64.6453 77.0046L64.5713 77.1097L64.4972 77.2149L64.423 77.3202L64.3488 77.4257L64.2744 77.5313L64.2 77.637L64.1255 77.7428L64.0509 77.8488L63.9762 77.955L63.9014 78.0612L63.8265 78.1676L63.7514 78.2742L63.6763 78.3809L63.6011 78.4878L63.5257 78.5948L63.4503 78.702L63.3747 78.8093L63.299 78.9168L63.2232 79.0245L63.1473 79.1323L63.0713 79.2404L62.9951 79.3486L62.9188 79.457L62.8423 79.5655L62.7658 79.6743L62.6891 79.7833L62.6122 79.8924L62.5352 80.0018L62.4581 80.1113L62.3809 80.2211L62.3034 80.331L62.2259 80.4412L62.1482 80.5516L62.0703 80.6622L61.9923 80.773L61.9141 80.884L61.8358 80.9953L61.7573 81.1068L61.6786 81.2186L61.5998 81.3305L61.5208 81.4427L61.4416 81.5552L61.3623 81.6679L61.2828 81.7808L61.2031 81.894L61.1232 82.0075L61.0432 82.1212L60.9629 82.2352L60.8825 82.3494L60.8019 82.4639L60.7211 82.5787L60.6401 82.6937L60.5589 82.809L60.4776 82.9246L60.396 83.0405L60.3142 83.1567L60.2322 83.2731L60.15 83.3899L60.0676 83.5069L59.985 83.6243L59.9022 83.7419L59.8191 83.8599L59.7359 83.9781L59.6524 84.0967L59.5687 84.2156L59.4848 84.3348L59.4006 84.4543L59.3163 84.5742L59.2317 84.6943L59.1468 84.8149L59.0618 84.9357L58.9765 85.0569L58.8909 85.1784L58.8051 85.3002L58.7191 85.4224L58.6328 85.545L58.5463 85.6679L58.4595 85.7912L58.3725 85.9148L58.2852 86.0388L58.1977 86.1631L58.1099 86.2878L58.0218 86.4129L57.9335 86.5383L57.8449 86.6642L57.7561 86.7904L57.6669 86.917L57.5775 87.044L57.4879 87.1713L57.3979 87.2991L57.3077 87.4273L57.2172 87.5558L57.1264 87.6848L57.0353 87.8142L56.944 87.944L56.8523 88.0741L56.7604 88.2047L56.6681 88.3358L56.5756 88.4672L56.4827 88.5991L56.3896 88.7314L56.2962 88.8641L56.2024 88.9973L56.1084 89.1309L56.014 89.2649L55.9193 89.3994L55.8243 89.5343L55.729 89.6697L55.6334 89.8055L55.5375 89.9418L55.4412 90.0786L55.3446 90.2158L55.2477 90.3534L55.1504 90.4916L55.0529 90.6302L54.9549 90.7693L54.8567 90.9088L54.7581 91.0489L54.6592 91.1894L54.5599 91.3304L54.4603 91.4719L54.3603 91.6139L54.26 91.7564L54.1593 91.8994L54.0583 92.0429L53.9569 92.1869L53.8552 92.3315L53.7531 92.4765L53.6506 92.622L53.5478 92.7681L53.4446 92.9147L53.341 93.0618L53.2371 93.2094L53.1328 93.3576L53.0281 93.5063L52.923 93.6555L52.8176 93.8053L52.7117 93.9556L52.6055 94.1065L52.4989 94.2579L52.3919 94.4099L52.2846 94.5624L52.1768 94.7155L52.0686 94.8692L51.96 95.0234L51.8511 95.1782L51.7417 95.3336L51.6319 95.4895L51.5217 95.646L51.4111 95.8031L51.3001 95.9608L51.1887 96.1191L51.0769 96.2779L50.9646 96.4374L50.8519 96.5974L50.7388 96.7581L50.6253 96.9193L50.5114 97.0812L50.397 97.2437L50.2822 97.4068L50.1669 97.5705L50.0512 97.7348L49.9351 97.8997L49.8186 98.0653L49.7016 98.2315L49.5841 98.3983L49.4662 98.5658L49.3479 98.7339L49.2291 98.9026L49.1098 99.072L48.9901 99.2421L48.87 99.4127L48.7493 99.5841L48.6283 99.7561L48.5067 99.9287L48.3847 100.102L48.2622 100.276L48.1392 100.451L48.0158 100.626L47.8919 100.802L47.7675 100.979L47.6427 101.156L47.5173 101.334L47.3915 101.513L47.2652 101.692L47.1383 101.872L47.011 102.053L46.8833 102.235L46.755 102.417L46.6262 102.6L46.4969 102.784L46.3671 102.968L46.2368 103.153L46.106 103.339L45.9747 103.525L45.8429 103.713L45.7105 103.901L45.5777 104.089L45.4443 104.279L45.3104 104.469L45.176 104.66L45.0411 104.852L44.9056 105.044L44.7696 105.237L44.6331 105.431L44.4961 105.626L44.3585 105.821L44.2203 106.017L44.0817 106.214L43.9425 106.412L43.8027 106.611L43.6624 106.81L43.5215 107.01L43.3801 107.211L43.2382 107.412L43.1024 107.605Z" stroke="#002E5A" stroke-width="2"/>
</svg>
