<svg width="488" height="417" viewBox="0 0 488 417" fill="none" xmlns="http://www.w3.org/2000/svg">
<path fill-rule="evenodd" clip-rule="evenodd" d="M268.121 52.6216C324.349 48.783 381.477 -24.5607 427.066 8.5702C472.659 41.7034 423.226 118.076 434.242 173.346C443.204 218.308 502.472 255.417 484.692 297.676C466.527 340.854 402.842 335.946 358.947 352.313C328.69 363.596 299.259 369.875 268.121 378.432C221.7 391.189 178.7 426.277 131.973 414.687C77.8552 401.265 21.6741 366.003 4.35195 313.01C-12.9731 260.009 25.5764 206.934 47.2719 155.565C66.9341 109.011 78.3923 50.5992 124.2 29.247C169.356 8.19855 218.415 56.0151 268.121 52.6216Z" fill="#C23329"/>
</svg>
