<svg width="92" height="92" viewBox="0 0 92 92" fill="none" xmlns="http://www.w3.org/2000/svg">
<g clip-path="url(#clip0_207_2076)">
<path d="M89.6583 41.9592L50.0429 2.34599C47.7631 0.0646816 44.0629 0.0646816 41.7795 2.34599L33.5548 10.5728L43.9896 21.0076C46.4154 20.189 49.1955 20.7381 51.1282 22.6708C53.071 24.6157 53.6166 27.4196 52.7763 29.8533L62.8331 39.9115C65.2661 39.0727 68.0742 39.6146 70.0163 41.561C72.7332 44.2757 72.7332 48.6766 70.0163 51.3928C67.2994 54.1096 62.8999 54.1096 60.1816 51.3928C58.1389 49.3486 57.6337 46.3479 58.6687 43.8308L49.2904 34.4518L49.289 59.1344C49.9516 59.4615 50.5762 59.8985 51.1282 60.4483C53.8444 63.163 53.8444 67.5625 51.1282 70.283C48.4121 72.9977 44.0097 72.9977 41.2965 70.283C38.581 67.5632 38.3582 63.1637 41.0729 60.4483C41.7442 59.7777 42.4062 59.271 43.125 58.9317V34.0206C42.4062 33.6813 41.745 33.1782 41.0722 32.5033C39.0159 30.4477 38.6313 27.4289 39.6865 24.9018L29.4565 14.6143L2.32081 41.7759C0.0387767 44.0594 0.0531517 47.7595 2.33518 50.0415L41.957 89.6547C44.2376 91.936 47.9406 91.936 50.2248 89.6547L89.6554 50.2255C91.9374 47.9428 91.9396 44.2405 89.6583 41.9592Z" fill="#F34F29"/>
</g>
<defs>
<clipPath id="clip0_207_2076">
<rect width="92" height="92" fill="white"/>
</clipPath>
</defs>
</svg>
