<svg width="92" height="92" viewBox="0 0 92 92" fill="none" xmlns="http://www.w3.org/2000/svg">
<path d="M45.9999 8.6123C36.8976 8.61268 28.0924 11.8519 21.1598 17.7504C14.2272 23.6489 9.6197 31.8217 8.16162 40.8065C6.70354 49.7913 8.49008 59.0018 13.2016 66.7899C17.913 74.578 25.242 80.4355 33.8771 83.3143C35.7938 83.6498 36.5125 82.4999 36.5125 81.4935C36.5125 80.5831 36.4646 77.5643 36.4646 74.354C26.8333 76.1268 24.3416 72.0062 23.5749 69.8499C22.7242 67.7528 21.3757 65.8944 19.6458 64.4352C18.3041 63.7165 16.3874 61.9436 19.5978 61.8957C20.8237 62.0287 21.9994 62.4553 23.0254 63.1392C24.0513 63.8232 24.8973 64.7444 25.4916 65.8248C26.0159 66.7666 26.7209 67.5958 27.5662 68.2647C28.4115 68.9336 29.3804 69.4291 30.4176 69.7229C31.4547 70.0167 32.5396 70.1029 33.6101 69.9767C34.6807 69.8505 35.7158 69.5142 36.6561 68.9873C36.8221 67.0385 37.6906 65.2164 39.0999 63.8603C30.5708 62.902 21.6583 59.5956 21.6583 44.9333C21.6044 41.1235 23.0102 37.4375 25.5874 34.6312C24.4155 31.32 24.5526 27.6863 25.9708 24.4728C25.9708 24.4728 29.1811 23.4665 36.5124 28.402C42.7849 26.6769 49.4067 26.6769 55.6791 28.402C63.0103 23.4187 66.2208 24.4728 66.2208 24.4728C67.6391 27.6862 67.7762 31.32 66.6041 34.6312C69.1891 37.4327 70.5961 41.1219 70.5333 44.9333C70.5333 59.6436 61.5728 62.902 53.0437 63.8603C53.9585 64.7876 54.6631 65.9008 55.1096 67.1245C55.556 68.3481 55.7339 69.6535 55.6312 70.952C55.6312 76.0792 55.5832 80.1998 55.5832 81.4937C55.5832 82.5 56.302 83.6978 58.2187 83.3145C66.8385 80.4122 74.1464 74.5409 78.8379 66.7488C83.5293 58.9567 85.2988 49.751 83.8306 40.7749C82.3625 31.7988 77.7521 23.6366 70.8226 17.7453C63.893 11.854 55.0953 8.61704 45.9999 8.6123Z" fill="black"/>
</svg>
