<svg width="92" height="92" viewBox="0 0 92 92" fill="none" xmlns="http://www.w3.org/2000/svg">
<path d="M12.7578 82.6562L5.39062 0H86.4297L79.0625 82.6562L45.8203 92" fill="#E34F26"/>
<path d="M46 84.8125L72.7734 77.4453L79.0625 6.64844H46" fill="#EF652A"/>
<path d="M46 37.375H32.5234L31.625 26.9531H46V16.8906H20.4844L23.1797 47.6172H46V37.375ZM45.8203 63.7891L34.5 60.7344L33.7812 52.6484H23.7188L24.9766 68.6406L45.8203 74.3906V63.7891Z" fill="#EBEBEB"/>
<path d="M45.8203 37.375V47.6172H58.3984L57.1406 60.7344L45.8203 63.7891V74.3906L66.6641 68.6406L69.5391 37.375H45.8203ZM45.8203 16.8906V26.9531H70.4375L71.3359 16.8906H45.8203Z" fill="white"/>
</svg>
