<svg width="92" height="92" viewBox="0 0 92 92" fill="none" xmlns="http://www.w3.org/2000/svg">
<g clip-path="url(#clip0_207_2073)">
<path d="M0 0H92V92H0V0Z" fill="#F7DF1E"/>
<path d="M24.1903 76.8818L31.2305 72.621C32.5889 75.0292 33.8244 77.0668 36.7882 77.0668C39.6291 77.0668 41.4205 75.9557 41.4205 71.6331V42.2369H50.066V71.7553C50.066 80.7098 44.817 84.7859 37.1587 84.7859C30.2425 84.7859 26.228 81.204 24.1899 76.881M54.762 75.9553L61.8014 71.8796C63.6547 74.9059 66.0632 77.129 70.324 77.129C73.9066 77.129 76.1908 75.3379 76.1908 72.8675C76.1908 69.9034 73.8441 68.8533 69.8917 67.1247L67.7307 66.1975C61.4931 63.5428 57.3556 60.2078 57.3556 53.1677C57.3556 46.6831 62.2959 41.7424 70.0156 41.7424C75.5119 41.7424 79.4643 43.6572 82.3048 48.6593L75.573 52.9826C74.0906 50.3272 72.4856 49.2774 70.0153 49.2774C67.4831 49.2774 65.8774 50.8831 65.8774 52.9826C65.8774 55.5762 67.4831 56.6267 71.1883 58.2324L73.3496 59.1585C80.6988 62.3084 84.8363 65.5194 84.8363 72.7443C84.8363 80.5262 78.7226 84.7869 70.5091 84.7869C62.481 84.7869 57.2934 80.9582 54.7616 75.9557" fill="black"/>
</g>
<defs>
<clipPath id="clip0_207_2073">
<rect width="92" height="92" fill="white"/>
</clipPath>
</defs>
</svg>
