<svg width="48" height="48" viewBox="0 0 48 48" fill="none" xmlns="http://www.w3.org/2000/svg">
<rect width="48" height="48" rx="8" fill="#FF4C54"/>
<path d="M33.4239 11.08H33.5359C33.6106 11.08 33.6853 11.136 33.7599 11.248C33.8719 11.3227 33.9653 11.36 34.0399 11.36C34.2639 11.36 34.4879 11.2853 34.7119 11.136C34.9359 10.9867 35.1599 10.8187 35.3839 10.632C35.6453 10.408 35.9066 10.2213 36.1679 10.072C36.4293 9.92266 36.7093 9.84799 37.0079 9.84799C37.2319 9.84799 37.4559 10.072 37.6799 10.52C37.9039 10.968 38.1653 11.304 38.4639 11.528L37.9599 12.088V13.208C37.9226 13.4693 37.8853 13.656 37.8479 13.768C37.8479 13.88 37.8293 13.992 37.7919 14.104C37.7919 14.1787 37.7733 14.272 37.7359 14.384C37.6986 14.4587 37.6239 14.608 37.5119 14.832H37.6239C37.3999 15.4667 37.2506 15.9333 37.1759 16.232C37.1013 16.4933 37.0639 16.6613 37.0639 16.736C37.1013 16.7733 37.1199 16.792 37.1199 16.792L37.0639 17.856C36.9893 17.856 36.9146 17.968 36.8399 18.192C36.8026 18.3787 36.7653 18.6027 36.7279 18.864C36.6906 19.1253 36.6533 19.368 36.6159 19.592C36.5786 19.816 36.5413 19.9467 36.5039 19.984C36.4666 20.096 36.4479 20.208 36.4479 20.32C36.4479 20.3947 36.4479 20.4693 36.4479 20.544C36.4853 20.5813 36.5039 20.6373 36.5039 20.712C36.5039 21.0853 36.4106 21.4773 36.2239 21.888C36.0746 22.2613 35.9626 22.616 35.8879 22.952L36.1679 22.784L35.8319 24.072L35.9439 24.184C35.6826 24.4827 35.5519 24.8373 35.5519 25.248C35.5519 25.3227 35.5519 25.416 35.5519 25.528C35.5893 25.64 35.6079 25.7333 35.6079 25.808L34.6559 28.944C34.6186 29.2427 34.5813 29.7093 34.5439 30.344C34.5066 30.9413 34.4133 31.4827 34.2639 31.968C34.1893 32.1547 34.1146 32.36 34.0399 32.584C33.9653 32.808 33.9279 33.0133 33.9279 33.2L33.9839 33.704C33.9466 33.7413 33.9279 33.7973 33.9279 33.872C33.9279 33.9093 33.9093 33.9467 33.8719 33.984V34.04C33.8346 34.1147 33.8159 34.2267 33.8159 34.376C33.8159 34.4507 33.8159 34.544 33.8159 34.656C33.8533 34.7307 33.8719 34.8053 33.8719 34.88C33.8719 35.0293 33.7599 35.1787 33.5359 35.328C33.3119 35.4773 33.0506 35.6267 32.7519 35.776C32.4906 35.888 32.2106 36.0187 31.9119 36.168C31.6506 36.3173 31.4453 36.4667 31.2959 36.616C31.1839 36.8027 31.0159 36.896 30.7919 36.896C30.6053 36.896 30.3439 36.84 30.0079 36.728C29.6719 36.6533 29.2799 36.5787 28.8319 36.504C28.3466 36.3173 27.7679 35.8693 27.0959 35.16C26.4613 34.4507 25.8826 33.5547 25.3599 32.472C25.3973 32.472 25.3226 32.3787 25.1359 32.192C24.9866 32.0053 24.9119 31.8747 24.9119 31.8V31.576L24.8559 31.464L25.1919 31.52V31.352C25.0799 31.0907 24.9493 30.8107 24.7999 30.512C24.6879 30.176 24.5573 29.8773 24.4079 29.616C24.2586 29.3173 24.1279 29.0933 24.0159 28.944C23.9413 28.7573 23.9039 28.664 23.9039 28.664L23.8479 28.608V28.832C23.8479 28.944 23.8106 29 23.7359 29C23.3253 28.3653 23.0453 27.824 22.8959 27.376C22.7466 26.8907 22.5039 26.2933 22.1679 25.584C22.0559 25.808 21.9066 26.088 21.7199 26.424C21.5706 26.76 21.4026 27.1333 21.2159 27.544C21.0293 27.9173 20.8613 28.272 20.7119 28.608C20.5999 28.944 20.5253 29.224 20.4879 29.448L20.5999 29.616L19.8719 31.072V31.24C19.8719 31.4267 19.7786 31.632 19.5919 31.856C19.4426 32.08 19.3493 32.2853 19.3119 32.472C19.1999 32.808 19.0693 33.1813 18.9199 33.592C18.8079 33.9653 18.6399 34.32 18.4159 34.656C18.2293 34.992 18.0053 35.272 17.7439 35.496C17.4826 35.72 17.1653 35.832 16.7919 35.832L16.6239 36.28L15.4479 36.448C15.2239 36.2613 15.0186 36.1307 14.8319 36.056C14.6826 35.9813 14.5333 35.9253 14.3839 35.888C14.2719 35.8133 14.1413 35.72 13.9919 35.608C13.8799 35.496 13.7306 35.2907 13.5439 34.992L13.4319 34.824C13.3946 34.7867 13.3759 34.6933 13.3759 34.544L13.4879 34.488L12.7599 32.752L12.8159 32.64L12.9279 32.752L13.2639 32.36H12.7599L13.0399 31.968V31.352C12.9653 30.792 12.8719 30.2693 12.7599 29.784C12.6853 29.3733 12.5733 28.9627 12.4239 28.552C12.2746 28.104 12.1253 27.7307 11.9759 27.432C11.9386 27.544 11.9199 27.6933 11.9199 27.88C11.9199 28.216 11.9573 28.5333 12.0319 28.832C12.1439 29.1307 12.1999 29.448 12.1999 29.784H12.0879L11.5839 28.328C11.5839 27.6187 11.4533 26.8907 11.1919 26.144C10.9306 25.36 10.7999 24.4827 10.7999 23.512L10.4079 20.264C10.3333 19.928 10.2399 19.7227 10.1279 19.648C10.0159 19.5733 9.9226 19.2747 9.84793 18.752C9.84793 18.6773 9.8666 18.528 9.90393 18.304C9.9786 18.08 10.0159 17.8933 10.0159 17.744C10.0159 17.5573 9.95993 17.352 9.84793 17.128C9.73593 16.8667 9.67993 16.6987 9.67993 16.624L9.84793 15.336C9.84793 15.2987 9.9786 15.2613 10.2399 15.224C10.5013 15.1867 10.6506 15.168 10.6879 15.168L12.7039 15.504L13.9359 16.512C14.1599 16.7733 14.2906 17.1653 14.3279 17.688C14.3653 18.1733 14.4213 18.5653 14.4959 18.864C14.4959 18.9013 14.5146 19.0133 14.5519 19.2C14.5893 19.3867 14.6266 19.6107 14.6639 19.872C14.7386 20.096 14.7946 20.32 14.8319 20.544C14.9066 20.768 14.9439 20.9173 14.9439 20.992L15.5039 24.744C15.5039 24.856 15.5226 25.1733 15.5599 25.696C15.6346 26.2187 15.7093 26.7787 15.7839 27.376C15.8586 27.936 15.9333 28.4587 16.0079 28.944C16.1199 29.392 16.2319 29.6347 16.3439 29.672C16.4186 29.4853 16.4933 29.3173 16.5679 29.168C16.6799 29.0187 16.7546 28.8693 16.7919 28.72L16.6239 28.832V28.72C16.6239 28.6453 16.6239 28.552 16.6239 28.44C16.6613 28.328 16.7173 28.272 16.7919 28.272C16.8293 28.272 16.8479 28.2907 16.8479 28.328C16.8479 28.328 16.8666 28.328 16.9039 28.328C17.2399 27.5813 17.4639 27.0213 17.5759 26.648C17.7253 26.2747 17.8373 25.9947 17.9119 25.808L18.2479 25.416L18.0239 25.192L18.1359 25.024C18.2106 24.6507 18.3599 24.3893 18.5839 24.24C18.8079 24.0533 18.9199 23.7173 18.9199 23.232C18.9199 22.8213 18.9946 22.6347 19.1439 22.672C19.2933 22.7093 19.3679 22.672 19.3679 22.56C19.3679 22.5227 19.3493 22.504 19.3119 22.504C19.3119 22.4667 19.3119 22.4107 19.3119 22.336L20.5439 19.872V19.256C20.7679 19.1813 20.9733 19.0693 21.1599 18.92C21.3466 18.7707 21.5519 18.696 21.7759 18.696C21.9253 18.696 22.1306 18.752 22.3919 18.864C22.6906 18.9387 22.9519 19.0693 23.1759 19.256C23.4373 19.4053 23.6613 19.592 23.8479 19.816C24.0346 20.0027 24.1279 20.1893 24.1279 20.376L24.2399 20.656C24.3146 20.88 24.4639 21.16 24.6879 21.496C24.9119 21.832 25.0426 22.0373 25.0799 22.112C25.3039 22.4853 25.4533 22.8213 25.5279 23.12C25.6026 23.3813 25.6773 23.6613 25.7519 23.96C25.8639 24.2213 25.9759 24.52 26.0879 24.856C26.2373 25.1547 26.4613 25.528 26.7599 25.976C26.7973 26.2747 26.9093 26.4427 27.0959 26.48L27.4319 27.768C27.4693 27.8053 27.5253 27.9173 27.5999 28.104C27.7119 28.2907 27.8053 28.4773 27.8799 28.664C27.9919 28.8507 28.0853 29.0373 28.1599 29.224C28.2346 29.3733 28.3093 29.448 28.3839 29.448L28.4399 29.392C28.6266 28.8693 28.7386 28.384 28.7759 27.936C28.8506 27.488 28.8879 27.0587 28.8879 26.648C28.8879 26.2373 28.8879 25.8267 28.8879 25.416C28.9253 24.968 29.0186 24.4827 29.1679 23.96L28.8879 24.128C28.8879 23.9787 28.8693 23.904 28.8319 23.904L29.6719 21.72L30.0639 21.608C30.2506 21.496 30.3626 21.2533 30.3999 20.88C30.4746 20.5067 30.5119 20.2267 30.5119 20.04C30.5119 19.8907 30.4746 19.816 30.3999 19.816L30.6799 18.528L30.4559 18.752L30.2319 18.64L30.6799 18.136L30.3999 17.912L30.5679 17.352L31.1279 17.184L31.0159 17.128C31.0159 16.568 31.0719 16.064 31.1839 15.616C31.2959 15.168 31.3519 14.776 31.3519 14.44C31.3519 14.216 31.3333 14.0667 31.2959 13.992C31.2586 14.0293 31.3333 13.936 31.5199 13.712C31.7066 13.488 31.7999 13.32 31.7999 13.208L33.4239 11.08ZM25.3039 31.576C25.3039 31.7627 25.4159 32.0613 25.6399 32.472C25.8639 32.8453 26.0693 33.1067 26.2559 33.256V33.144C26.2559 32.9573 26.1439 32.696 25.9199 32.36C25.6959 32.024 25.4906 31.7627 25.3039 31.576ZM23.9599 29.672C24.0346 29.672 24.0906 29.7467 24.1279 29.896C24.2026 30.008 24.2399 30.12 24.2399 30.232C24.2399 30.3813 24.2026 30.456 24.1279 30.456C24.0533 30.456 23.9973 30.3813 23.9599 30.232C23.9226 30.0827 23.9039 29.952 23.9039 29.84C23.9039 29.728 23.9226 29.672 23.9599 29.672ZM12.1999 30.064C12.2373 30.1013 12.2559 30.1947 12.2559 30.344C12.2933 30.456 12.3119 30.5493 12.3119 30.624C12.3119 30.736 12.2933 30.792 12.2559 30.792C12.2186 30.792 12.1813 30.736 12.1439 30.624C12.1066 30.4747 12.0879 30.344 12.0879 30.232C12.0879 30.12 12.1253 30.064 12.1999 30.064ZM11.0799 22.056C10.9679 22.056 10.9119 22.112 10.9119 22.224C10.9119 22.3733 10.9679 22.448 11.0799 22.448C11.1546 22.448 11.1919 22.392 11.1919 22.28C11.1919 22.1307 11.1546 22.056 11.0799 22.056ZM23.8479 29.112C24.0346 29.112 24.1279 29.2427 24.1279 29.504C24.1279 29.5413 24.1093 29.56 24.0719 29.56C23.8853 29.56 23.7919 29.4293 23.7919 29.168C23.7919 29.1307 23.8106 29.112 23.8479 29.112ZM11.5839 25.696C11.5839 25.92 11.6399 26.088 11.7519 26.2V26.032C11.7519 25.92 11.7146 25.7147 11.6399 25.416L11.5839 25.696ZM24.6879 30.96C24.7999 30.96 24.8559 31.072 24.8559 31.296C24.8559 31.408 24.8186 31.464 24.7439 31.464C24.6319 31.464 24.5759 31.3707 24.5759 31.184C24.5759 31.0347 24.6133 30.96 24.6879 30.96ZM11.4719 24.184V23.96C11.4719 23.9227 11.4346 23.848 11.3599 23.736C11.3226 23.5867 11.2853 23.4373 11.2479 23.288V23.68L11.4719 24.184ZM24.4079 30.568C24.5199 30.568 24.5759 30.6613 24.5759 30.848C24.5759 30.9227 24.5573 30.96 24.5199 30.96C24.3706 30.96 24.2959 30.8667 24.2959 30.68C24.2959 30.6053 24.3333 30.568 24.4079 30.568ZM11.5839 24.408C11.5093 24.408 11.4719 24.464 11.4719 24.576C11.4719 24.6507 11.5093 24.688 11.5839 24.688C11.6586 24.688 11.6959 24.6507 11.6959 24.576C11.6959 24.464 11.6586 24.408 11.5839 24.408ZM11.6959 24.856C11.5839 24.856 11.5279 24.912 11.5279 25.024C11.5653 25.0613 11.6026 25.08 11.6399 25.08C11.7519 25.08 11.8079 25.0427 11.8079 24.968C11.8079 24.8933 11.7706 24.856 11.6959 24.856ZM11.2479 22.84C11.1733 22.8773 11.1359 22.896 11.1359 22.896H11.0799C11.0799 22.9333 11.1359 22.952 11.2479 22.952C11.3226 22.952 11.3599 22.9333 11.3599 22.896C11.3226 22.8587 11.2853 22.84 11.2479 22.84Z" fill="#FFFCFC"/>
</svg>
