<svg width="25" height="25" viewBox="0 0 25 25" fill="none" xmlns="http://www.w3.org/2000/svg">
<path d="M1 6C1 4.35938 2.3125 3 4 3H22C23.6406 3 25 4.35938 25 6V18C25 19.6875 23.6406 21 22 21H4C2.3125 21 1 19.6875 1 18V6ZM2.5 6V7.875L11.6406 14.625C12.4375 15.1875 13.5156 15.1875 14.3125 14.625L23.5 7.875V6C23.5 5.20312 22.7969 4.5 22 4.5H3.95312C3.15625 4.5 2.45312 5.20312 2.45312 6H2.5ZM2.5 9.75V18C2.5 18.8438 3.15625 19.5 4 19.5H22C22.7969 19.5 23.5 18.8438 23.5 18V9.75L15.2031 15.8438C13.8906 16.7812 12.0625 16.7812 10.75 15.8438L2.5 9.75Z" fill="white"/>
</svg>
