<svg width="25" height="25" viewBox="0 0 25 25" fill="none" xmlns="http://www.w3.org/2000/svg">
<path d="M2 4.58333C2 3.74219 2.65625 3 3.5 3H21.5C22.2969 3 23 3.74219 23 4.58333C23 5.47396 22.2969 6.16667 21.5 6.16667H3.5C2.65625 6.16667 2 5.47396 2 4.58333ZM2 12.5C2 11.6589 2.65625 10.9167 3.5 10.9167H21.5C22.2969 10.9167 23 11.6589 23 12.5C23 13.3906 22.2969 14.0833 21.5 14.0833H3.5C2.65625 14.0833 2 13.3906 2 12.5ZM21.5 22H3.5C2.65625 22 2 21.3073 2 20.4167C2 19.5755 2.65625 18.8333 3.5 18.8333H21.5C22.2969 18.8333 23 19.5755 23 20.4167C23 21.3073 22.2969 22 21.5 22Z" fill="#4065DE"/>
</svg>
