<svg width="92" height="92" viewBox="0 0 92 92" fill="none" xmlns="http://www.w3.org/2000/svg">
<path d="M58.5971 33.9369C41.1168 34.776 37.7888 35.0858 33.569 36.2664C28.1461 37.7844 26.5115 40.7893 25.8473 50.4669L25.4758 55.8758L27.0669 56.4802C29.4157 57.3715 61.543 58.4412 72.0856 57.9788C81.4815 57.5669 84.2369 57.4799 85.7758 56.0698C86.4577 55.4451 86.9007 54.5605 87.5768 53.2729C89.3196 49.9541 89.4365 49.3286 89.6176 42.3577C89.7447 37.455 89.8747 35.1195 88.7702 34.0221C87.7041 32.9628 85.4876 33.0571 81.0077 33.1096C77.2317 33.1542 67.1476 33.5262 58.5971 33.9369Z" fill="#84B0B3"/>
<path d="M58.5971 33.9369C41.1168 34.776 37.7888 35.0858 33.569 36.2664C28.1461 37.7844 26.5115 40.7893 25.8473 50.4669L25.4758 55.8758L27.0669 56.4802C29.4157 57.3715 61.543 58.4412 72.0856 57.9788C81.4815 57.5669 84.2369 57.4799 85.7758 56.0698C86.4577 55.4451 86.9007 54.5605 87.5768 53.2729C89.3196 49.9541 89.4365 49.3286 89.6176 42.3577C89.7447 37.455 89.8747 35.1195 88.7702 34.0221C87.7041 32.9628 85.4876 33.0571 81.0077 33.1096C77.2317 33.1542 67.1476 33.5262 58.5971 33.9369Z" fill="#84B0B3"/>
<path d="M49.8337 7.12723C48.5529 8.40581 47.3985 15.1467 47.3985 21.3442C47.3985 24.9916 47.5713 25.627 48.9315 26.9848L50.4644 28.5146L65.5365 28.1331C73.8261 27.9231 82.3002 27.5786 84.3675 27.3674L88.1264 26.9831L87.7995 18.0359C87.6197 13.1147 87.1953 8.57128 86.8561 7.93932C85.9786 6.30222 83.0537 6.03759 65.8316 6.03759C52.0908 6.03759 50.84 6.12267 49.8337 7.12723Z" fill="#84B0B3"/>
<path d="M49.8337 7.12723C48.5529 8.40581 47.3985 15.1467 47.3985 21.3442C47.3985 24.9916 47.5713 25.627 48.9315 26.9848L50.4644 28.5146L65.5365 28.1331C73.8261 27.9231 82.3002 27.5786 84.3675 27.3674L88.1264 26.9831L87.7995 18.0359C87.6197 13.1147 87.1953 8.57128 86.8561 7.93932C85.9786 6.30222 83.0537 6.03759 65.8316 6.03759C52.0908 6.03759 50.84 6.12267 49.8337 7.12723Z" fill="#DD8A46"/>
<path d="M10.4925 64.0349C7.91149 64.2679 6.01529 64.7343 5.72257 65.2079C5.30524 65.8832 3.64121 74.6033 2.38746 82.6843L2.01245 85.1042L13.3903 85.5149C19.6484 85.7403 34.6876 85.9409 46.8107 85.9603C69.8403 85.9973 75.011 85.6036 79.4459 83.4771C83.243 81.6557 84.0824 79.6308 84.3334 71.6906L84.5485 64.8769L79.9332 64.4991C73.3358 63.9592 15.6103 63.5731 10.4925 64.0349Z" fill="#84B0B3"/>
<path d="M10.4925 64.0349C7.91149 64.2679 6.01529 64.7343 5.72257 65.2079C5.30524 65.8832 3.64121 74.6033 2.38746 82.6843L2.01245 85.1042L13.3903 85.5149C19.6484 85.7403 34.6876 85.9409 46.8107 85.9603C69.8403 85.9973 75.011 85.6036 79.4459 83.4771C83.243 81.6557 84.0824 79.6308 84.3334 71.6906L84.5485 64.8769L79.9332 64.4991C73.3358 63.9592 15.6103 63.5731 10.4925 64.0349Z" fill="#82A279"/>
</svg>
