<svg width="25" height="25" viewBox="0 0 25 25" fill="none" xmlns="http://www.w3.org/2000/svg">
<path d="M8.3125 10.1651C9.10938 10.2589 9.85938 9.79013 10.1406 9.04013L11.6406 5.337C11.9688 4.49325 11.6406 3.60263 10.9375 3.13388L7.9375 1.25888C7.23438 0.837003 6.34375 0.930753 5.73438 1.54013C2.64062 4.587 1 8.66513 1 12.9776C1 17.2901 2.64062 21.3683 5.73438 24.4151C6.0625 24.837 6.53125 24.9776 7 24.9776C7.32812 24.9776 7.65625 24.9308 7.9375 24.7433L10.9375 22.8683C11.6406 22.3995 11.9688 21.462 11.6406 20.6651L10.1406 16.962C9.85938 16.212 9.10938 15.7433 8.3125 15.837L6.57812 16.0245C6.01562 14.0558 6.01562 11.9464 6.57812 9.97763L8.3125 10.1651ZM5.3125 17.0558C5.45312 17.3839 5.78125 17.6183 6.10938 17.5714L8.45312 17.337C8.54688 17.2901 8.73438 17.3839 8.78125 17.5245L10.2344 21.2276C10.2812 21.3683 10.2344 21.5089 10.1406 21.6026L7.14062 23.4308C7.04688 23.5245 6.90625 23.5245 6.76562 23.3839C4 20.6183 2.45312 16.9151 2.45312 12.9776C2.45312 9.04013 3.95312 5.337 6.71875 2.57138C6.8125 2.47763 6.85938 2.47763 6.95312 2.47763C7 2.47763 7.04688 2.47763 7.09375 2.5245L10.0938 4.35263C10.1875 4.44638 10.2812 4.587 10.1875 4.72763L8.78125 8.47763C8.73438 8.61825 8.59375 8.66513 8.5 8.66513C8.45312 8.66513 8.45312 8.66513 8.45312 8.66513L6.10938 8.43075C5.73438 8.43075 5.45312 8.61825 5.3125 8.94638C4.42188 11.5714 4.42188 14.4308 5.3125 17.0558ZM19.7969 2.66513C19.4688 2.38388 19 2.47763 18.7656 2.80575C18.4844 3.13388 18.5781 3.60263 18.9062 3.837C21.8125 6.04013 23.5 9.36825 23.5 12.9776C23.5 16.6339 21.8125 19.962 18.9062 22.1651C18.5781 22.3995 18.4844 22.8683 18.7656 23.1964C18.9062 23.3839 19.1406 23.4776 19.375 23.4776C19.5156 23.4776 19.6562 23.4308 19.7969 23.337C23.0781 20.8995 25 17.1026 25 12.9776C25 8.8995 23.0781 5.10263 19.7969 2.66513ZM16.6094 5.61825C16.2344 5.38388 15.7656 5.47763 15.5312 5.80575C15.2969 6.18075 15.3906 6.6495 15.7656 6.88388C17.7812 8.24325 19 10.5401 19 12.9776C19 15.462 17.7812 17.7589 15.7656 19.1183C15.3906 19.3526 15.2969 19.8214 15.5312 20.1964C15.7188 20.3839 15.9531 20.4776 16.1875 20.4776C16.3281 20.4776 16.4688 20.4776 16.6094 20.3839C19.0469 18.6964 20.5 15.9308 20.5 12.9776C20.5 10.0714 19.0469 7.30575 16.6094 5.61825ZM13.75 9.32138C13.375 9.13388 12.9062 9.2745 12.7188 9.6495C12.5312 10.0245 12.6719 10.4933 13.0469 10.6808C13.9375 11.1026 14.5 11.9933 14.5 12.9776C14.5 14.0089 13.9375 14.8995 13.0469 15.3214C12.6719 15.5089 12.5312 15.9776 12.7188 16.3526C12.8594 16.587 13.1406 16.7276 13.375 16.7276C13.5156 16.7276 13.6094 16.7276 13.75 16.6808C15.1094 15.9776 15.9531 14.5714 15.9531 12.9776C15.9531 11.4308 15.1094 10.0245 13.75 9.32138Z" fill="white"/>
</svg>
