<svg width="25" height="25" viewBox="0 0 25 25" fill="none" xmlns="http://www.w3.org/2000/svg">
<path d="M16.75 10C16.75 12.1094 15.0625 13.75 13 13.75C10.8906 13.75 9.25 12.1094 9.25 10C9.25 7.9375 10.8906 6.25 13 6.25C15.0625 6.25 16.75 7.9375 16.75 10ZM13 12.25C14.2188 12.25 15.25 11.2656 15.25 10C15.25 8.78125 14.2188 7.75 13 7.75C11.7344 7.75 10.75 8.78125 10.75 10C10.75 11.2656 11.7344 12.25 13 12.25ZM22 10C22 14.125 16.5156 21.3906 14.0781 24.4375C13.5156 25.1406 12.4375 25.1406 11.875 24.4375C9.4375 21.3906 4 14.125 4 10C4 5.03125 7.98438 1 13 1C17.9688 1 22 5.03125 22 10ZM13 2.5C8.82812 2.5 5.5 5.875 5.5 10C5.5 10.75 5.73438 11.7344 6.25 13C6.76562 14.2188 7.46875 15.5312 8.3125 16.8438C9.90625 19.4219 11.7812 21.9062 13 23.4062C14.1719 21.9062 16.0469 19.4219 17.6406 16.8438C18.4844 15.5312 19.1875 14.2188 19.7031 13C20.2188 11.7344 20.5 10.75 20.5 10C20.5 5.875 17.125 2.5 13 2.5Z" fill="white"/>
</svg>
