<svg width="92" height="92" viewBox="0 0 92 92" fill="none" xmlns="http://www.w3.org/2000/svg">
<path d="M75.6164 31.2249C74.6586 30.8885 73.6756 30.5781 72.6674 30.2677C72.8438 29.5692 72.9951 28.8707 73.1211 28.1981C75.3644 17.0222 73.9025 8.01942 68.8866 5.07023C64.0975 2.22453 56.2334 5.19958 48.3189 12.2621C47.5627 12.9347 46.7814 13.6591 46.0252 14.4093C45.5211 13.9178 45.017 13.4263 44.5129 12.9606C36.1951 5.38068 27.8773 2.19866 22.8866 5.17371C18.0975 8.01942 16.6608 16.4789 18.6773 27.0598C18.8789 28.0946 19.1058 29.1294 19.3578 30.1901C18.1731 30.5264 17.0389 30.8885 15.9551 31.2766C6.22575 34.7691 0 40.2276 0 45.8932C0 51.7398 6.67945 57.6123 16.8121 61.1824C17.6186 61.467 18.4504 61.7256 19.3074 61.9843C19.0301 63.1226 18.7781 64.2609 18.5764 65.3475C16.6608 75.7472 18.1479 83.9998 22.937 86.8455C27.8773 89.7688 36.1699 86.7679 44.2356 79.5242C44.8658 78.9551 45.5211 78.3342 46.1512 77.7133C46.983 78.5412 47.8148 79.3173 48.6466 80.0416C56.4603 86.949 64.1984 89.7429 68.9622 86.8972C73.9025 83.9739 75.4904 75.1005 73.4236 64.2868C73.2723 63.4589 73.0707 62.6311 72.869 61.7515C73.4488 61.5704 74.0285 61.3893 74.583 61.2082C85.1189 57.6123 92 51.8174 92 45.8932C91.9748 40.2276 85.5474 34.7432 75.6164 31.2249ZM73.3227 57.4054C72.8186 57.5864 72.3145 57.7417 71.7852 57.8969C70.6257 54.1199 69.0378 50.0841 67.1222 45.9449C68.9622 41.8833 70.4745 37.9252 71.6088 34.1482C72.5414 34.4327 73.474 34.7173 74.3562 35.0278C82.8756 38.0287 88.0679 42.4783 88.0679 45.919C88.0427 49.5667 82.4471 54.3009 73.3227 57.4054ZM69.5419 65.0888C70.4745 69.8747 70.6005 74.1691 69.9956 77.5581C69.4411 80.5849 68.3573 82.6028 66.971 83.4306C64.0723 85.1639 57.8718 82.9132 51.1923 77.0149C50.4362 76.3422 49.6548 75.6179 48.8734 74.8418C51.4696 71.9443 54.0658 68.5553 56.5863 64.8042C61.0225 64.3903 65.2318 63.7435 69.0378 62.8381C69.2394 63.5883 69.4159 64.3385 69.5419 65.0888ZM31.3304 83.1202C28.5074 84.155 26.2389 84.1809 24.8778 83.3789C21.9792 81.6715 20.7693 75.0229 22.4077 66.1236C22.5841 65.1146 22.811 64.054 23.0882 62.9933C26.869 63.847 31.0279 64.4679 35.4893 64.8301C38.0351 68.5036 40.7068 71.8926 43.3786 74.8418C42.7989 75.4109 42.2192 75.98 41.6142 76.4974C38.0603 79.7053 34.4811 81.9819 31.3304 83.1202ZM18.0723 57.3795C13.5858 55.8014 9.88055 53.7577 7.33479 51.5328C5.0411 49.515 3.90685 47.5489 3.90685 45.919C3.90685 42.4783 8.89753 38.1063 17.2405 35.1054C18.2488 34.7432 19.3074 34.4069 20.4164 34.0706C21.5759 37.9252 23.0882 41.9351 24.903 45.9967C23.063 50.11 21.5255 54.1975 20.366 58.1038C19.5594 57.871 18.8033 57.6382 18.0723 57.3795ZM22.5085 26.3095C20.7693 17.2292 21.9288 10.3995 24.8274 8.69204C27.9025 6.85527 34.7079 9.46814 41.8915 16.0133C42.3452 16.4272 42.7989 16.867 43.2778 17.3326C40.606 20.2818 37.9595 23.6449 35.4389 27.2926C31.1036 27.7065 26.9699 28.3533 23.1638 29.2587C22.9118 28.2239 22.7101 27.2409 22.5085 26.3095ZM62.2071 36.3471C61.2997 34.7432 60.3671 33.1651 59.4093 31.6129C62.3331 32.001 65.1562 32.4925 67.8027 33.1134C67.0214 35.7262 66.0131 38.4426 64.8537 41.2366C64.0219 39.6585 63.1397 38.0028 62.2071 36.3471ZM46.0252 20.1783C47.84 22.1962 49.6548 24.4469 51.4444 26.8787C49.6548 26.8011 47.8148 26.7493 45.9748 26.7493C44.16 26.7493 42.3452 26.8011 40.5556 26.8787C42.3452 24.4728 44.1852 22.2221 46.0252 20.1783ZM29.7425 36.3989C28.8351 38.0287 27.9781 39.6585 27.1463 41.2883C26.0121 38.4943 25.029 35.7521 24.2225 33.1134C26.8438 32.5184 29.6416 32.0268 32.5655 31.6388C31.5825 33.1651 30.6499 34.7691 29.7425 36.3989ZM32.6411 60.4839C29.6164 60.1476 26.7934 59.6819 24.1721 59.0869C24.9786 56.3964 25.9868 53.6024 27.1463 50.7567C27.9781 52.3866 28.8351 54.0164 29.7425 55.6462C30.6751 57.3019 31.6329 58.9058 32.6411 60.4839ZM46.126 71.9443C44.2608 69.8747 42.3956 67.5981 40.5808 65.1405C42.3452 65.2181 44.1348 65.244 45.9748 65.244C47.84 65.244 49.7052 65.1922 51.52 65.1146C49.7304 67.624 47.9156 69.9006 46.126 71.9443ZM64.8789 50.6015C66.114 53.4731 67.1474 56.2671 67.9792 58.9058C65.3074 59.5267 62.434 60.0441 59.4093 60.4063C60.3671 58.8541 61.2997 57.2501 62.2323 55.5944C63.1649 53.9388 64.0471 52.2831 64.8789 50.6015ZM58.8044 53.6024C57.3677 56.1636 55.8805 58.5954 54.3934 60.9237C51.6712 61.1306 48.8482 61.2341 45.9748 61.2341C43.1014 61.2341 40.3288 61.1306 37.657 60.9754C36.0942 58.6471 34.5819 56.1895 33.1704 53.6542C31.7337 51.1189 30.423 48.5837 29.2384 46.0484C30.423 43.5131 31.7337 40.952 33.1452 38.4426C34.5567 35.9073 36.069 33.4756 37.6066 31.1472C40.354 30.9403 43.1518 30.8368 45.9748 30.8368C48.823 30.8368 51.6208 30.9403 54.3682 31.1731C55.8805 33.4755 57.3677 35.9073 58.8044 38.4426C60.2411 41.0037 61.577 43.539 62.7616 46.0225C61.577 48.4802 60.2411 51.0413 58.8044 53.6024ZM66.9205 8.56269C69.9956 10.3736 71.2055 17.7466 69.2647 27.3961C69.1386 28.017 69.0126 28.6378 68.8614 29.2846C65.0553 28.3791 60.8964 27.7065 56.5611 27.2926C54.0405 23.5932 51.4192 20.2301 48.7726 17.3326C49.4784 16.6341 50.1841 15.9615 50.8899 15.3406C57.6701 9.23531 64.0219 6.85527 66.9205 8.56269ZM45.9748 37.4854C50.5118 37.4854 54.1918 41.2624 54.1918 45.919C54.1918 50.5757 50.5118 54.3527 45.9748 54.3527C41.4378 54.3527 37.7578 50.5757 37.7578 45.919C37.7578 41.2624 41.4378 37.4854 45.9748 37.4854Z" fill="#00D8FF"/>
</svg>
