<svg width="92" height="92" viewBox="0 0 92 92" fill="none" xmlns="http://www.w3.org/2000/svg">
<g clip-path="url(#clip0_207_1993)">
<path d="M54.3663 40.25C54.6027 40.9014 54.6787 41.6001 54.5878 42.2871C54.4969 42.9741 54.2417 43.629 53.844 44.1965C53.4463 44.7639 52.9177 45.2272 52.303 45.547C51.6882 45.8668 51.0055 46.0338 50.3125 46.0338C49.6196 46.0338 48.9368 45.8668 48.3221 45.547C47.7074 45.2272 47.1788 44.7639 46.7811 44.1965C46.3834 43.629 46.1282 42.9741 46.0373 42.2871C45.9464 41.6001 46.0224 40.9014 46.2588 40.25H35.9375V30.5037C35.3193 31.0657 34.5512 31.4359 33.7265 31.5695C32.9018 31.7031 32.0561 31.5943 31.2921 31.2563C30.5281 30.9183 29.8787 30.3656 29.4229 29.6655C28.9671 28.9654 28.7244 28.1479 28.7244 27.3125C28.7244 26.4771 28.9671 25.6596 29.4229 24.9595C29.8787 24.2594 30.5281 23.7067 31.2921 23.3687C32.0561 23.0307 32.9018 22.9219 33.7265 23.0555C34.5512 23.1891 35.3193 23.5593 35.9375 24.1213V11.5C29.7245 11.5096 23.7004 13.6373 18.8594 17.5318C14.0185 21.4263 10.6501 26.855 9.31006 32.9219C7.97006 38.9887 8.73858 45.3311 11.4888 50.9023C14.239 56.4736 18.8065 60.9406 24.4375 63.5663V76.1875H47.4375V63.5663C51.9432 61.4835 55.796 58.2123 58.582 54.1042C61.368 49.9961 62.9819 45.2065 63.25 40.25H54.3663Z" fill="#F7D04F"/>
<path d="M60.375 4.3125V16.9337C59.7568 16.3718 58.9886 16.0016 58.164 15.868C57.3393 15.7344 56.4936 15.8432 55.7296 16.1812C54.9656 16.5192 54.3162 17.0719 53.8604 17.772C53.4045 18.4721 53.1619 19.2896 53.1619 20.125C53.1619 20.9604 53.4045 21.7779 53.8604 22.478C54.3162 23.1781 54.9656 23.7308 55.7296 24.0688C56.4936 24.4068 57.3393 24.5156 58.164 24.382C58.9886 24.2484 59.7568 23.8782 60.375 23.3162V33.0625H70.6962C70.4598 33.7139 70.3838 34.4126 70.4748 35.0996C70.5657 35.7866 70.8208 36.4415 71.2185 37.009C71.6162 37.5764 72.1448 38.0397 72.7596 38.3595C73.3743 38.6793 74.057 38.8463 74.75 38.8463C75.4429 38.8463 76.1257 38.6793 76.7404 38.3595C77.3551 38.0397 77.8837 37.5764 78.2815 37.009C78.6792 36.4415 78.9343 35.7866 79.0252 35.0996C79.1161 34.4126 79.0402 33.7139 78.8037 33.0625H87.6875V31.625C87.6875 24.3813 84.8099 17.4342 79.6878 12.3121C74.5658 7.19006 67.6187 4.3125 60.375 4.3125Z" fill="#EF9F35"/>
<path d="M41.6875 47.4375C40.5438 47.4375 39.4469 47.8918 38.6381 48.7006C37.8294 49.5093 37.375 50.6062 37.375 51.75V53.1875H34.5V51.75C34.5 50.897 34.2471 50.0633 33.7732 49.3541C33.2994 48.6449 32.6258 48.0922 31.8378 47.7658C31.0498 47.4393 30.1827 47.3539 29.3462 47.5203C28.5096 47.6867 27.7412 48.0975 27.1381 48.7006C26.535 49.3037 26.1243 50.0721 25.9579 50.9087C25.7915 51.7452 25.8769 52.6123 26.2033 53.4003C26.5297 54.1883 27.0824 54.8618 27.7916 55.3357C28.5008 55.8096 29.3346 56.0625 30.1875 56.0625H31.625V77.625H40.25V56.0625H41.6875C42.8312 56.0625 43.9282 55.6081 44.7369 54.7994C45.5457 53.9906 46 52.8937 46 51.75C46 50.6062 45.5457 49.5093 44.7369 48.7006C43.9282 47.8918 42.8312 47.4375 41.6875 47.4375ZM30.1875 53.1875C29.9032 53.1875 29.6253 53.1032 29.3889 52.9452C29.1525 52.7873 28.9682 52.5628 28.8594 52.3001C28.7506 52.0374 28.7222 51.7484 28.7776 51.4695C28.8331 51.1907 28.97 50.9345 29.171 50.7335C29.3721 50.5325 29.6282 50.3956 29.9071 50.3401C30.1859 50.2846 30.4749 50.3131 30.7376 50.4219C31.0003 50.5307 31.2248 50.715 31.3827 50.9513C31.5407 51.1877 31.625 51.4657 31.625 51.75V53.1875H30.1875ZM37.375 74.75H34.5V56.0625H37.375V74.75ZM41.6875 53.1875H40.25V51.75C40.25 51.4657 40.3343 51.1877 40.4923 50.9513C40.6502 50.715 40.8747 50.5307 41.1374 50.4219C41.4001 50.3131 41.6891 50.2846 41.9679 50.3401C42.2468 50.3956 42.5029 50.5325 42.704 50.7335C42.905 50.9345 43.0419 51.1907 43.0974 51.4695C43.1528 51.7484 43.1244 52.0374 43.0156 52.3001C42.9068 52.5628 42.7225 52.7873 42.4861 52.9452C42.2497 53.1032 41.9718 53.1875 41.6875 53.1875ZM71.1131 14.5906C69.8456 13.7963 68.4961 13.1409 67.0881 12.6356L68.0369 9.93311C69.6494 10.4999 71.1925 11.2474 72.6369 12.1612L71.1131 14.5906ZM79.7812 26.2631C78.7724 22.6572 76.7818 19.4025 74.0312 16.8619L75.9863 14.7631C79.1228 17.6587 81.3881 21.3728 82.5269 25.4869L79.7812 26.2631Z" fill="#F9F6ED"/>
<path d="M51.75 79.0625C51.75 77.9188 51.2956 76.8219 50.4869 76.0131C49.6781 75.2044 48.5812 74.75 47.4375 74.75H24.4375C23.2938 74.75 22.1969 75.2044 21.3881 76.0131C20.5794 76.8219 20.125 77.9188 20.125 79.0625C20.1313 80.1263 20.5307 81.1503 21.2462 81.9375C20.5307 82.7247 20.1313 83.7487 20.125 84.8125C20.125 85.9562 20.5794 87.0531 21.3881 87.8619C22.1969 88.6706 23.2938 89.125 24.4375 89.125H47.4375C48.5812 89.125 49.6781 88.6706 50.4869 87.8619C51.2956 87.0531 51.75 85.9562 51.75 84.8125C51.7437 83.7487 51.3443 82.7247 50.6288 81.9375C51.3443 81.1503 51.7437 80.1263 51.75 79.0625Z" fill="#1895AA"/>
</g>
<defs>
<clipPath id="clip0_207_1993">
<rect width="92" height="92" fill="white"/>
</clipPath>
</defs>
</svg>
