<svg width="92" height="92" viewBox="0 0 92 92" fill="none" xmlns="http://www.w3.org/2000/svg">
<g clip-path="url(#clip0_207_2000)">
<path d="M37.536 52.8079L28.52 74.7039C28.152 75.6239 27.048 76.1759 26.128 75.6239L9.01597 68.4479C8.09597 68.0799 7.54397 66.9759 8.09597 66.0559L17.848 42.5039L36.8 50.2319C37.536 50.7839 37.904 51.8879 37.536 52.8079Z" fill="#83BD57"/>
<path d="M51.8881 31.28C50.9681 32.2 48.9441 34.776 46.7361 38.456C46.1841 39.376 43.6081 43.24 43.6081 43.24C42.1361 45.264 41.5841 49.68 41.5841 49.68C40.6641 52.256 35.6961 50.6 36.6161 42.872C36.6161 42.872 36.6161 42.688 36.8001 42.32L18.0321 50.232C16.1921 50.968 14.1681 50.048 13.4321 48.392C12.6961 46.552 13.6161 44.528 15.2721 43.792L12.5121 44.896C10.8561 45.632 8.8321 44.712 8.0961 43.056C7.3601 41.216 8.2801 39.192 9.9361 38.456L11.5921 37.72C9.7521 38.456 7.7281 37.536 6.9921 35.88C6.2561 34.224 7.1761 32.016 8.8321 31.28L13.2481 29.44C11.2241 30.36 9.01609 29.072 8.46409 26.864C8.28009 25.392 9.2001 23.92 10.6721 23.184L30.1761 15.088C30.1761 15.088 35.3281 12.696 38.8241 13.8C40.2961 14.168 41.7681 14.168 43.0561 13.616L44.1601 13.064L51.8881 31.28Z" fill="#FFCA67"/>
<path d="M13.064 29.8081C16.376 27.9681 21.528 25.7601 25.208 24.8401C21.896 26.4961 16.56 28.7041 13.064 29.8081ZM11.592 37.9041C16.008 35.5121 23 32.7521 27.968 31.0961C23.368 33.4881 16.376 36.4321 11.592 37.9041ZM15.272 43.7921C19.32 41.5841 25.944 38.8241 30.544 37.5361C26.312 39.7441 19.688 42.5041 15.272 43.7921Z" fill="#F5B948"/>
<path d="M74.1519 26.68L55.1999 34.408C54.2799 34.776 53.1759 34.408 52.8079 33.488L43.7919 11.408C43.4239 10.488 43.7919 9.38399 44.7119 9.01599L61.8239 1.83999C62.7439 1.47199 63.8479 1.83999 64.2159 2.75999L74.1519 26.68Z" fill="#9A7EAA"/>
<path d="M83.168 49.128C82.248 50.2319 81.696 51.7039 81.696 53.1759V54.464H62.008C61.456 53.1759 59.984 50.416 57.408 46.9199C56.856 46.1839 54.096 42.32 54.096 42.32C52.808 40.1119 48.944 37.9039 48.944 37.9039C47.472 36.432 49.68 34.7759 49.68 34.7759C49.68 34.7759 52.44 33.3039 57.224 35.8799C57.224 35.8799 57.408 36.064 57.592 36.064V15.64C57.592 13.8 59.064 12.144 61.088 12.144C63.112 12.144 64.584 13.616 64.584 15.64V12.696C64.584 10.856 66.056 9.19995 68.08 9.19995C70.104 9.19995 71.576 10.672 71.576 12.696V14.536C71.576 12.512 73.048 11.04 75.072 11.04C76.912 11.04 78.568 12.512 78.568 14.536V19.32C78.568 17.112 80.592 15.456 82.8 16.008C84.456 16.376 85.56 17.848 85.56 19.504V40.6639C85.192 40.6639 85.56 46.368 83.168 49.128Z" fill="#FFCA67"/>
<path d="M78.384 19.1359C78.752 22.8159 78.752 28.5199 78.384 32.1999C77.832 28.5199 77.832 22.8159 78.384 19.1359ZM71.392 14.5359C71.76 19.5039 71.76 27.2319 71.392 32.1999C70.84 27.0479 70.84 19.5039 71.392 14.5359ZM64.4 15.8239C64.768 20.4239 64.768 27.5999 64.4 32.1999C64.032 27.4159 64.032 20.4239 64.4 15.8239Z" fill="#F5B948"/>
<path d="M85.192 56.3041V74.8881C85.192 75.8081 84.456 76.7281 83.352 76.7281H57.96V56.3041C57.96 55.2001 58.88 54.4641 59.8 54.4641H83.536C84.456 54.4641 85.192 55.2001 85.192 56.3041Z" fill="#59B1E3"/>
<path d="M76.176 77.6481C75.44 79.4881 73.416 80.2241 71.576 79.4881L69.92 78.9361C71.76 79.6721 72.496 81.6961 71.76 83.5361C71.024 85.1921 69 86.1121 67.16 85.3761L62.744 83.5361C66.976 85.3761 64.4 91.6321 59.984 89.7921L40.48 81.6961C40.48 81.6961 35.144 79.8561 33.304 76.5441C32.568 75.2561 31.464 74.3361 30.176 73.6001L29.072 73.0481L36.616 54.8321C41.768 54.4641 44.528 53.3601 50.784 52.2561C53.36 51.8881 56.856 49.1281 56.856 49.1281C59.616 48.3921 59.432 50.9681 59.432 50.9681C59.432 50.9681 59.8 54.0961 55.568 57.4081C55.568 57.4081 55.384 57.4081 55.2 57.5921L73.968 65.3201C75.808 66.0561 76.544 68.0801 75.808 69.7361C75.072 71.5761 73.048 72.3121 71.208 71.5761L73.968 72.6801C75.992 73.7841 76.912 75.8081 76.176 77.6481Z" fill="#FFCA67"/>
<path d="M63.112 83.536C59.616 82.616 54.28 80.408 50.968 78.568C54.648 79.488 59.8 81.696 63.112 83.536ZM69.92 78.752C65.136 77.28 58.144 74.336 53.544 71.944C58.512 73.6 65.504 76.544 69.92 78.752ZM71.576 71.944C67.16 70.656 60.536 67.896 56.304 65.688C60.904 66.976 67.344 69.736 71.576 71.944Z" fill="#F5B948"/>
</g>
<defs>
<clipPath id="clip0_207_2000">
<rect width="92" height="92" fill="white"/>
</clipPath>
</defs>
</svg>
