<svg width="92" height="92" viewBox="0 0 92 92" fill="none" xmlns="http://www.w3.org/2000/svg">
<path fill-rule="evenodd" clip-rule="evenodd" d="M46 90.5625L46.0108 38.5809C13.4821 24.9277 8.625 1.4375 8.625 1.4375V53.1887C8.625 71.8645 46 90.5625 46 90.5625ZM54.9896 33.7557V85.4522C57.9236 83.6537 61.2972 81.4275 64.6712 78.8944V29.5226C22.0098 25.4869 8.625 1.4375 8.625 1.4375C23.1637 31.003 54.9896 33.7557 54.9896 33.7557ZM83.375 9.35534V1.4375C71.6714 4.99039 59.0882 6.93143 46 6.94255C32.9114 6.93143 20.3397 4.99039 8.625 1.4375C8.625 1.4375 37.0877 18.8302 83.375 9.35534ZM73.7042 23.8969V71.1521C79.2321 65.6248 83.375 59.3955 83.375 53.1887V17.7557C76.6274 18.4025 62.1653 19.2031 46.945 16.3626C28.8347 13.0071 17.7788 8.53255 8.625 1.4375C30.3401 24.4234 73.7042 23.8969 73.7042 23.8969Z" fill="#D00224"/>
</svg>
